<?xml version="1.0" encoding="utf-8" standalone="no"?>
<!DOCTYPE svg PUBLIC "-//W3C//DTD SVG 1.1//EN"
  "http://www.w3.org/Graphics/SVG/1.1/DTD/svg11.dtd">
<svg xmlns:xlink="http://www.w3.org/1999/xlink" width="240.48pt" height="240.48pt" viewBox="0 0 240.48 240.48" xmlns="http://www.w3.org/2000/svg" version="1.1">
 <metadata>
  <rdf:RDF xmlns:dc="http://purl.org/dc/elements/1.1/" xmlns:cc="http://creativecommons.org/ns#" xmlns:rdf="http://www.w3.org/1999/02/22-rdf-syntax-ns#">
   <cc:Work>
    <dc:type rdf:resource="http://purl.org/dc/dcmitype/StillImage"/>
    <dc:date>2025-09-11T20:09:09.756532</dc:date>
    <dc:format>image/svg+xml</dc:format>
    <dc:creator>
     <cc:Agent>
      <dc:title>Matplotlib v3.9.2, https://matplotlib.org/</dc:title>
     </cc:Agent>
    </dc:creator>
   </cc:Work>
  </rdf:RDF>
 </metadata>
 <defs>
  <style type="text/css">*{stroke-linejoin: round; stroke-linecap: butt}</style>
 </defs>
 <g id="figure_1">
  <g id="patch_1">
   <path d="M 0 240.48 
L 240.48 240.48 
L 240.48 0 
L 0 0 
z
" style="fill: #ffffff"/>
  </g>
  <g id="axes_1">
   <g id="patch_2">
    <path d="M 31.639063 205.6795 
L 234 205.6795 
L 234 6.48 
L 31.639063 6.48 
z
" style="fill: #ffffff"/>
   </g>
   <g id="matplotlib.axis_1">
    <g id="xtick_1">
     <g id="line2d_1">
      <defs>
       <path id="m4fa3429783" d="M 0 0 
L 0 3.5 
" style="stroke: #000000; stroke-width: 0.8"/>
      </defs>
      <g>
       <use xlink:href="#m4fa3429783" x="56.93418" y="205.6795" style="stroke: #000000; stroke-width: 0.8"/>
      </g>
     </g>
     <g id="text_1">
      <!-- Whole -->
      <g transform="translate(48.431055 216.974187) scale(0.06 -0.06)">
       <defs>
        <path id="ArialMT-57" d="M 1294 0 
L 78 4581 
L 700 4581 
L 1397 1578 
Q 1509 1106 1591 641 
Q 1766 1375 1797 1488 
L 2669 4581 
L 3400 4581 
L 4056 2263 
Q 4303 1400 4413 641 
Q 4500 1075 4641 1638 
L 5359 4581 
L 5969 4581 
L 4713 0 
L 4128 0 
L 3163 3491 
Q 3041 3928 3019 4028 
Q 2947 3713 2884 3491 
L 1913 0 
L 1294 0 
z
" transform="scale(0.015625)"/>
        <path id="ArialMT-68" d="M 422 0 
L 422 4581 
L 984 4581 
L 984 2938 
Q 1378 3394 1978 3394 
Q 2347 3394 2619 3248 
Q 2891 3103 3008 2847 
Q 3125 2591 3125 2103 
L 3125 0 
L 2563 0 
L 2563 2103 
Q 2563 2525 2380 2717 
Q 2197 2909 1863 2909 
Q 1613 2909 1392 2779 
Q 1172 2650 1078 2428 
Q 984 2206 984 1816 
L 984 0 
L 422 0 
z
" transform="scale(0.015625)"/>
        <path id="ArialMT-6f" d="M 213 1659 
Q 213 2581 725 3025 
Q 1153 3394 1769 3394 
Q 2453 3394 2887 2945 
Q 3322 2497 3322 1706 
Q 3322 1066 3130 698 
Q 2938 331 2570 128 
Q 2203 -75 1769 -75 
Q 1072 -75 642 372 
Q 213 819 213 1659 
z
M 791 1659 
Q 791 1022 1069 705 
Q 1347 388 1769 388 
Q 2188 388 2466 706 
Q 2744 1025 2744 1678 
Q 2744 2294 2464 2611 
Q 2184 2928 1769 2928 
Q 1347 2928 1069 2612 
Q 791 2297 791 1659 
z
" transform="scale(0.015625)"/>
        <path id="ArialMT-6c" d="M 409 0 
L 409 4581 
L 972 4581 
L 972 0 
L 409 0 
z
" transform="scale(0.015625)"/>
        <path id="ArialMT-65" d="M 2694 1069 
L 3275 997 
Q 3138 488 2766 206 
Q 2394 -75 1816 -75 
Q 1088 -75 661 373 
Q 234 822 234 1631 
Q 234 2469 665 2931 
Q 1097 3394 1784 3394 
Q 2450 3394 2872 2941 
Q 3294 2488 3294 1666 
Q 3294 1616 3291 1516 
L 816 1516 
Q 847 969 1125 678 
Q 1403 388 1819 388 
Q 2128 388 2347 550 
Q 2566 713 2694 1069 
z
M 847 1978 
L 2700 1978 
Q 2663 2397 2488 2606 
Q 2219 2931 1791 2931 
Q 1403 2931 1139 2672 
Q 875 2413 847 1978 
z
" transform="scale(0.015625)"/>
       </defs>
       <use xlink:href="#ArialMT-57"/>
       <use xlink:href="#ArialMT-68" x="94.384766"/>
       <use xlink:href="#ArialMT-6f" x="150"/>
       <use xlink:href="#ArialMT-6c" x="205.615234"/>
       <use xlink:href="#ArialMT-65" x="227.832031"/>
      </g>
      <!-- Genome -->
      <g transform="translate(45.428711 223.320312) scale(0.06 -0.06)">
       <defs>
        <path id="ArialMT-47" d="M 2638 1797 
L 2638 2334 
L 4578 2338 
L 4578 638 
Q 4131 281 3656 101 
Q 3181 -78 2681 -78 
Q 2006 -78 1454 211 
Q 903 500 622 1047 
Q 341 1594 341 2269 
Q 341 2938 620 3517 
Q 900 4097 1425 4378 
Q 1950 4659 2634 4659 
Q 3131 4659 3532 4498 
Q 3934 4338 4162 4050 
Q 4391 3763 4509 3300 
L 3963 3150 
Q 3859 3500 3706 3700 
Q 3553 3900 3268 4020 
Q 2984 4141 2638 4141 
Q 2222 4141 1919 4014 
Q 1616 3888 1430 3681 
Q 1244 3475 1141 3228 
Q 966 2803 966 2306 
Q 966 1694 1177 1281 
Q 1388 869 1791 669 
Q 2194 469 2647 469 
Q 3041 469 3416 620 
Q 3791 772 3984 944 
L 3984 1797 
L 2638 1797 
z
" transform="scale(0.015625)"/>
        <path id="ArialMT-6e" d="M 422 0 
L 422 3319 
L 928 3319 
L 928 2847 
Q 1294 3394 1984 3394 
Q 2284 3394 2536 3286 
Q 2788 3178 2913 3003 
Q 3038 2828 3088 2588 
Q 3119 2431 3119 2041 
L 3119 0 
L 2556 0 
L 2556 2019 
Q 2556 2363 2490 2533 
Q 2425 2703 2258 2804 
Q 2091 2906 1866 2906 
Q 1506 2906 1245 2678 
Q 984 2450 984 1813 
L 984 0 
L 422 0 
z
" transform="scale(0.015625)"/>
        <path id="ArialMT-6d" d="M 422 0 
L 422 3319 
L 925 3319 
L 925 2853 
Q 1081 3097 1340 3245 
Q 1600 3394 1931 3394 
Q 2300 3394 2536 3241 
Q 2772 3088 2869 2813 
Q 3263 3394 3894 3394 
Q 4388 3394 4653 3120 
Q 4919 2847 4919 2278 
L 4919 0 
L 4359 0 
L 4359 2091 
Q 4359 2428 4304 2576 
Q 4250 2725 4106 2815 
Q 3963 2906 3769 2906 
Q 3419 2906 3187 2673 
Q 2956 2441 2956 1928 
L 2956 0 
L 2394 0 
L 2394 2156 
Q 2394 2531 2256 2718 
Q 2119 2906 1806 2906 
Q 1569 2906 1367 2781 
Q 1166 2656 1075 2415 
Q 984 2175 984 1722 
L 984 0 
L 422 0 
z
" transform="scale(0.015625)"/>
       </defs>
       <use xlink:href="#ArialMT-47"/>
       <use xlink:href="#ArialMT-65" x="77.783203"/>
       <use xlink:href="#ArialMT-6e" x="133.398438"/>
       <use xlink:href="#ArialMT-6f" x="189.013672"/>
       <use xlink:href="#ArialMT-6d" x="244.628906"/>
       <use xlink:href="#ArialMT-65" x="327.929688"/>
      </g>
     </g>
    </g>
    <g id="xtick_2">
     <g id="line2d_2">
      <g>
       <use xlink:href="#m4fa3429783" x="107.524414" y="205.6795" style="stroke: #000000; stroke-width: 0.8"/>
      </g>
     </g>
     <g id="text_2">
      <!-- PAR1 -->
      <g transform="translate(99.908633 216.974187) scale(0.06 -0.06)">
       <defs>
        <path id="ArialMT-50" d="M 494 0 
L 494 4581 
L 2222 4581 
Q 2678 4581 2919 4538 
Q 3256 4481 3484 4323 
Q 3713 4166 3852 3881 
Q 3991 3597 3991 3256 
Q 3991 2672 3619 2267 
Q 3247 1863 2275 1863 
L 1100 1863 
L 1100 0 
L 494 0 
z
M 1100 2403 
L 2284 2403 
Q 2872 2403 3119 2622 
Q 3366 2841 3366 3238 
Q 3366 3525 3220 3729 
Q 3075 3934 2838 4000 
Q 2684 4041 2272 4041 
L 1100 4041 
L 1100 2403 
z
" transform="scale(0.015625)"/>
        <path id="ArialMT-41" d="M -9 0 
L 1750 4581 
L 2403 4581 
L 4278 0 
L 3588 0 
L 3053 1388 
L 1138 1388 
L 634 0 
L -9 0 
z
M 1313 1881 
L 2866 1881 
L 2388 3150 
Q 2169 3728 2063 4100 
Q 1975 3659 1816 3225 
L 1313 1881 
z
" transform="scale(0.015625)"/>
        <path id="ArialMT-52" d="M 503 0 
L 503 4581 
L 2534 4581 
Q 3147 4581 3465 4457 
Q 3784 4334 3975 4021 
Q 4166 3709 4166 3331 
Q 4166 2844 3850 2509 
Q 3534 2175 2875 2084 
Q 3116 1969 3241 1856 
Q 3506 1613 3744 1247 
L 4541 0 
L 3778 0 
L 3172 953 
Q 2906 1366 2734 1584 
Q 2563 1803 2427 1890 
Q 2291 1978 2150 2013 
Q 2047 2034 1813 2034 
L 1109 2034 
L 1109 0 
L 503 0 
z
M 1109 2559 
L 2413 2559 
Q 2828 2559 3062 2645 
Q 3297 2731 3419 2920 
Q 3541 3109 3541 3331 
Q 3541 3656 3305 3865 
Q 3069 4075 2559 4075 
L 1109 4075 
L 1109 2559 
z
" transform="scale(0.015625)"/>
        <path id="ArialMT-31" d="M 2384 0 
L 1822 0 
L 1822 3584 
Q 1619 3391 1289 3197 
Q 959 3003 697 2906 
L 697 3450 
Q 1169 3672 1522 3987 
Q 1875 4303 2022 4600 
L 2384 4600 
L 2384 0 
z
" transform="scale(0.015625)"/>
       </defs>
       <use xlink:href="#ArialMT-50"/>
       <use xlink:href="#ArialMT-41" x="59.324219"/>
       <use xlink:href="#ArialMT-52" x="126.023438"/>
       <use xlink:href="#ArialMT-31" x="198.240234"/>
      </g>
     </g>
    </g>
    <g id="xtick_3">
     <g id="line2d_3">
      <g>
       <use xlink:href="#m4fa3429783" x="158.114648" y="205.6795" style="stroke: #000000; stroke-width: 0.8"/>
      </g>
     </g>
     <g id="text_3">
      <!-- PAR2 -->
      <g transform="translate(150.498867 216.974187) scale(0.06 -0.06)">
       <defs>
        <path id="ArialMT-32" d="M 3222 541 
L 3222 0 
L 194 0 
Q 188 203 259 391 
Q 375 700 629 1000 
Q 884 1300 1366 1694 
Q 2113 2306 2375 2664 
Q 2638 3022 2638 3341 
Q 2638 3675 2398 3904 
Q 2159 4134 1775 4134 
Q 1369 4134 1125 3890 
Q 881 3647 878 3216 
L 300 3275 
Q 359 3922 746 4261 
Q 1134 4600 1788 4600 
Q 2447 4600 2831 4234 
Q 3216 3869 3216 3328 
Q 3216 3053 3103 2787 
Q 2991 2522 2730 2228 
Q 2469 1934 1863 1422 
Q 1356 997 1212 845 
Q 1069 694 975 541 
L 3222 541 
z
" transform="scale(0.015625)"/>
       </defs>
       <use xlink:href="#ArialMT-50"/>
       <use xlink:href="#ArialMT-41" x="59.324219"/>
       <use xlink:href="#ArialMT-52" x="126.023438"/>
       <use xlink:href="#ArialMT-32" x="198.240234"/>
      </g>
     </g>
    </g>
    <g id="xtick_4">
     <g id="line2d_4">
      <g>
       <use xlink:href="#m4fa3429783" x="208.704883" y="205.6795" style="stroke: #000000; stroke-width: 0.8"/>
      </g>
     </g>
     <g id="text_4">
      <!-- Non-PAR ChrX -->
      <g transform="translate(188.58707 216.974187) scale(0.06 -0.06)">
       <defs>
        <path id="ArialMT-4e" d="M 488 0 
L 488 4581 
L 1109 4581 
L 3516 984 
L 3516 4581 
L 4097 4581 
L 4097 0 
L 3475 0 
L 1069 3600 
L 1069 0 
L 488 0 
z
" transform="scale(0.015625)"/>
        <path id="ArialMT-2d" d="M 203 1375 
L 203 1941 
L 1931 1941 
L 1931 1375 
L 203 1375 
z
" transform="scale(0.015625)"/>
        <path id="ArialMT-20" transform="scale(0.015625)"/>
        <path id="ArialMT-43" d="M 3763 1606 
L 4369 1453 
Q 4178 706 3683 314 
Q 3188 -78 2472 -78 
Q 1731 -78 1267 223 
Q 803 525 561 1097 
Q 319 1669 319 2325 
Q 319 3041 592 3573 
Q 866 4106 1370 4382 
Q 1875 4659 2481 4659 
Q 3169 4659 3637 4309 
Q 4106 3959 4291 3325 
L 3694 3184 
Q 3534 3684 3231 3912 
Q 2928 4141 2469 4141 
Q 1941 4141 1586 3887 
Q 1231 3634 1087 3207 
Q 944 2781 944 2328 
Q 944 1744 1114 1308 
Q 1284 872 1643 656 
Q 2003 441 2422 441 
Q 2931 441 3284 734 
Q 3638 1028 3763 1606 
z
" transform="scale(0.015625)"/>
        <path id="ArialMT-72" d="M 416 0 
L 416 3319 
L 922 3319 
L 922 2816 
Q 1116 3169 1280 3281 
Q 1444 3394 1641 3394 
Q 1925 3394 2219 3213 
L 2025 2691 
Q 1819 2813 1613 2813 
Q 1428 2813 1281 2702 
Q 1134 2591 1072 2394 
Q 978 2094 978 1738 
L 978 0 
L 416 0 
z
" transform="scale(0.015625)"/>
        <path id="ArialMT-58" d="M 28 0 
L 1800 2388 
L 238 4581 
L 959 4581 
L 1791 3406 
Q 2050 3041 2159 2844 
Q 2313 3094 2522 3366 
L 3444 4581 
L 4103 4581 
L 2494 2422 
L 4228 0 
L 3478 0 
L 2325 1634 
Q 2228 1775 2125 1941 
Q 1972 1691 1906 1597 
L 756 0 
L 28 0 
z
" transform="scale(0.015625)"/>
       </defs>
       <use xlink:href="#ArialMT-4e"/>
       <use xlink:href="#ArialMT-6f" x="72.216797"/>
       <use xlink:href="#ArialMT-6e" x="127.832031"/>
       <use xlink:href="#ArialMT-2d" x="183.447266"/>
       <use xlink:href="#ArialMT-50" x="216.748047"/>
       <use xlink:href="#ArialMT-41" x="276.072266"/>
       <use xlink:href="#ArialMT-52" x="342.771484"/>
       <use xlink:href="#ArialMT-20" x="414.988281"/>
       <use xlink:href="#ArialMT-43" x="442.771484"/>
       <use xlink:href="#ArialMT-68" x="514.988281"/>
       <use xlink:href="#ArialMT-72" x="570.603516"/>
       <use xlink:href="#ArialMT-58" x="603.904297"/>
      </g>
     </g>
    </g>
    <g id="text_5">
     <!-- Chromosome -->
     <g transform="translate(114.814844 232.8075) scale(0.06 -0.06)">
      <defs>
       <path id="ArialMT-73" d="M 197 991 
L 753 1078 
Q 800 744 1014 566 
Q 1228 388 1613 388 
Q 2000 388 2187 545 
Q 2375 703 2375 916 
Q 2375 1106 2209 1216 
Q 2094 1291 1634 1406 
Q 1016 1563 777 1677 
Q 538 1791 414 1992 
Q 291 2194 291 2438 
Q 291 2659 392 2848 
Q 494 3038 669 3163 
Q 800 3259 1026 3326 
Q 1253 3394 1513 3394 
Q 1903 3394 2198 3281 
Q 2494 3169 2634 2976 
Q 2775 2784 2828 2463 
L 2278 2388 
Q 2241 2644 2061 2787 
Q 1881 2931 1553 2931 
Q 1166 2931 1000 2803 
Q 834 2675 834 2503 
Q 834 2394 903 2306 
Q 972 2216 1119 2156 
Q 1203 2125 1616 2013 
Q 2213 1853 2448 1751 
Q 2684 1650 2818 1456 
Q 2953 1263 2953 975 
Q 2953 694 2789 445 
Q 2625 197 2315 61 
Q 2006 -75 1616 -75 
Q 969 -75 630 194 
Q 291 463 197 991 
z
" transform="scale(0.015625)"/>
      </defs>
      <use xlink:href="#ArialMT-43"/>
      <use xlink:href="#ArialMT-68" x="72.216797"/>
      <use xlink:href="#ArialMT-72" x="127.832031"/>
      <use xlink:href="#ArialMT-6f" x="161.132812"/>
      <use xlink:href="#ArialMT-6d" x="216.748047"/>
      <use xlink:href="#ArialMT-6f" x="300.048828"/>
      <use xlink:href="#ArialMT-73" x="355.664062"/>
      <use xlink:href="#ArialMT-6f" x="405.664062"/>
      <use xlink:href="#ArialMT-6d" x="461.279297"/>
      <use xlink:href="#ArialMT-65" x="544.580078"/>
     </g>
    </g>
   </g>
   <g id="matplotlib.axis_2">
    <g id="ytick_1">
     <g id="line2d_5">
      <path d="M 31.639063 196.624977 
L 234 196.624977 
" clip-path="url(#p60e272a5dd)" style="fill: none; stroke: #b0b0b0; stroke-opacity: 0.5; stroke-width: 0.8; stroke-linecap: square"/>
     </g>
     <g id="line2d_6">
      <defs>
       <path id="mdf782ccbb4" d="M 0 0 
L -3.5 0 
" style="stroke: #000000; stroke-width: 0.8"/>
      </defs>
      <g>
       <use xlink:href="#mdf782ccbb4" x="31.639063" y="196.624977" style="stroke: #000000; stroke-width: 0.8"/>
      </g>
     </g>
     <g id="text_6">
      <!-- 0% -->
      <g transform="translate(15.967188 198.772321) scale(0.06 -0.06)">
       <defs>
        <path id="ArialMT-30" d="M 266 2259 
Q 266 3072 433 3567 
Q 600 4063 929 4331 
Q 1259 4600 1759 4600 
Q 2128 4600 2406 4451 
Q 2684 4303 2865 4023 
Q 3047 3744 3150 3342 
Q 3253 2941 3253 2259 
Q 3253 1453 3087 958 
Q 2922 463 2592 192 
Q 2263 -78 1759 -78 
Q 1097 -78 719 397 
Q 266 969 266 2259 
z
M 844 2259 
Q 844 1131 1108 757 
Q 1372 384 1759 384 
Q 2147 384 2411 759 
Q 2675 1134 2675 2259 
Q 2675 3391 2411 3762 
Q 2147 4134 1753 4134 
Q 1366 4134 1134 3806 
Q 844 3388 844 2259 
z
" transform="scale(0.015625)"/>
        <path id="ArialMT-25" d="M 372 3481 
Q 372 3972 619 4315 
Q 866 4659 1334 4659 
Q 1766 4659 2048 4351 
Q 2331 4044 2331 3447 
Q 2331 2866 2045 2552 
Q 1759 2238 1341 2238 
Q 925 2238 648 2547 
Q 372 2856 372 3481 
z
M 1350 4272 
Q 1141 4272 1002 4090 
Q 863 3909 863 3425 
Q 863 2984 1003 2804 
Q 1144 2625 1350 2625 
Q 1563 2625 1702 2806 
Q 1841 2988 1841 3469 
Q 1841 3913 1700 4092 
Q 1559 4272 1350 4272 
z
M 1353 -169 
L 3859 4659 
L 4316 4659 
L 1819 -169 
L 1353 -169 
z
M 3334 1075 
Q 3334 1569 3581 1911 
Q 3828 2253 4300 2253 
Q 4731 2253 5014 1945 
Q 5297 1638 5297 1041 
Q 5297 459 5011 145 
Q 4725 -169 4303 -169 
Q 3888 -169 3611 142 
Q 3334 453 3334 1075 
z
M 4316 1866 
Q 4103 1866 3964 1684 
Q 3825 1503 3825 1019 
Q 3825 581 3965 400 
Q 4106 219 4313 219 
Q 4528 219 4667 400 
Q 4806 581 4806 1063 
Q 4806 1506 4665 1686 
Q 4525 1866 4316 1866 
z
" transform="scale(0.015625)"/>
       </defs>
       <use xlink:href="#ArialMT-30"/>
       <use xlink:href="#ArialMT-25" x="55.615234"/>
      </g>
     </g>
    </g>
    <g id="ytick_2">
     <g id="line2d_7">
      <path d="M 31.639063 156.785077 
L 234 156.785077 
" clip-path="url(#p60e272a5dd)" style="fill: none; stroke: #b0b0b0; stroke-opacity: 0.5; stroke-width: 0.8; stroke-linecap: square"/>
     </g>
     <g id="line2d_8">
      <g>
       <use xlink:href="#mdf782ccbb4" x="31.639063" y="156.785077" style="stroke: #000000; stroke-width: 0.8"/>
      </g>
     </g>
     <g id="text_7">
      <!-- 2% -->
      <g transform="translate(15.967188 158.932421) scale(0.06 -0.06)">
       <use xlink:href="#ArialMT-32"/>
       <use xlink:href="#ArialMT-25" x="55.615234"/>
      </g>
     </g>
    </g>
    <g id="ytick_3">
     <g id="line2d_9">
      <path d="M 31.639063 116.945177 
L 234 116.945177 
" clip-path="url(#p60e272a5dd)" style="fill: none; stroke: #b0b0b0; stroke-opacity: 0.5; stroke-width: 0.8; stroke-linecap: square"/>
     </g>
     <g id="line2d_10">
      <g>
       <use xlink:href="#mdf782ccbb4" x="31.639063" y="116.945177" style="stroke: #000000; stroke-width: 0.8"/>
      </g>
     </g>
     <g id="text_8">
      <!-- 4% -->
      <g transform="translate(15.967188 119.092521) scale(0.06 -0.06)">
       <defs>
        <path id="ArialMT-34" d="M 2069 0 
L 2069 1097 
L 81 1097 
L 81 1613 
L 2172 4581 
L 2631 4581 
L 2631 1613 
L 3250 1613 
L 3250 1097 
L 2631 1097 
L 2631 0 
L 2069 0 
z
M 2069 1613 
L 2069 3678 
L 634 1613 
L 2069 1613 
z
" transform="scale(0.015625)"/>
       </defs>
       <use xlink:href="#ArialMT-34"/>
       <use xlink:href="#ArialMT-25" x="55.615234"/>
      </g>
     </g>
    </g>
    <g id="ytick_4">
     <g id="line2d_11">
      <path d="M 31.639063 77.105277 
L 234 77.105277 
" clip-path="url(#p60e272a5dd)" style="fill: none; stroke: #b0b0b0; stroke-opacity: 0.5; stroke-width: 0.8; stroke-linecap: square"/>
     </g>
     <g id="line2d_12">
      <g>
       <use xlink:href="#mdf782ccbb4" x="31.639063" y="77.105277" style="stroke: #000000; stroke-width: 0.8"/>
      </g>
     </g>
     <g id="text_9">
      <!-- 6% -->
      <g transform="translate(15.967188 79.252621) scale(0.06 -0.06)">
       <defs>
        <path id="ArialMT-36" d="M 3184 3459 
L 2625 3416 
Q 2550 3747 2413 3897 
Q 2184 4138 1850 4138 
Q 1581 4138 1378 3988 
Q 1113 3794 959 3422 
Q 806 3050 800 2363 
Q 1003 2672 1297 2822 
Q 1591 2972 1913 2972 
Q 2475 2972 2870 2558 
Q 3266 2144 3266 1488 
Q 3266 1056 3080 686 
Q 2894 316 2569 119 
Q 2244 -78 1831 -78 
Q 1128 -78 684 439 
Q 241 956 241 2144 
Q 241 3472 731 4075 
Q 1159 4600 1884 4600 
Q 2425 4600 2770 4297 
Q 3116 3994 3184 3459 
z
M 888 1484 
Q 888 1194 1011 928 
Q 1134 663 1356 523 
Q 1578 384 1822 384 
Q 2178 384 2434 671 
Q 2691 959 2691 1453 
Q 2691 1928 2437 2201 
Q 2184 2475 1800 2475 
Q 1419 2475 1153 2201 
Q 888 1928 888 1484 
z
" transform="scale(0.015625)"/>
       </defs>
       <use xlink:href="#ArialMT-36"/>
       <use xlink:href="#ArialMT-25" x="55.615234"/>
      </g>
     </g>
    </g>
    <g id="ytick_5">
     <g id="line2d_13">
      <path d="M 31.639063 37.265377 
L 234 37.265377 
" clip-path="url(#p60e272a5dd)" style="fill: none; stroke: #b0b0b0; stroke-opacity: 0.5; stroke-width: 0.8; stroke-linecap: square"/>
     </g>
     <g id="line2d_14">
      <g>
       <use xlink:href="#mdf782ccbb4" x="31.639063" y="37.265377" style="stroke: #000000; stroke-width: 0.8"/>
      </g>
     </g>
     <g id="text_10">
      <!-- 8% -->
      <g transform="translate(15.967188 39.412721) scale(0.06 -0.06)">
       <defs>
        <path id="ArialMT-38" d="M 1131 2484 
Q 781 2613 612 2850 
Q 444 3088 444 3419 
Q 444 3919 803 4259 
Q 1163 4600 1759 4600 
Q 2359 4600 2725 4251 
Q 3091 3903 3091 3403 
Q 3091 3084 2923 2848 
Q 2756 2613 2416 2484 
Q 2838 2347 3058 2040 
Q 3278 1734 3278 1309 
Q 3278 722 2862 322 
Q 2447 -78 1769 -78 
Q 1091 -78 675 323 
Q 259 725 259 1325 
Q 259 1772 486 2073 
Q 713 2375 1131 2484 
z
M 1019 3438 
Q 1019 3113 1228 2906 
Q 1438 2700 1772 2700 
Q 2097 2700 2305 2904 
Q 2513 3109 2513 3406 
Q 2513 3716 2298 3927 
Q 2084 4138 1766 4138 
Q 1444 4138 1231 3931 
Q 1019 3725 1019 3438 
z
M 838 1322 
Q 838 1081 952 856 
Q 1066 631 1291 507 
Q 1516 384 1775 384 
Q 2178 384 2440 643 
Q 2703 903 2703 1303 
Q 2703 1709 2433 1975 
Q 2163 2241 1756 2241 
Q 1359 2241 1098 1978 
Q 838 1716 838 1322 
z
" transform="scale(0.015625)"/>
       </defs>
       <use xlink:href="#ArialMT-38"/>
       <use xlink:href="#ArialMT-25" x="55.615234"/>
      </g>
     </g>
    </g>
    <g id="text_11">
     <!-- Switch Error Rate -->
     <g transform="translate(10.774687 129.585219) rotate(-90) scale(0.06 -0.06)">
      <defs>
       <path id="ArialMT-53" d="M 288 1472 
L 859 1522 
Q 900 1178 1048 958 
Q 1197 738 1509 602 
Q 1822 466 2213 466 
Q 2559 466 2825 569 
Q 3091 672 3220 851 
Q 3350 1031 3350 1244 
Q 3350 1459 3225 1620 
Q 3100 1781 2813 1891 
Q 2628 1963 1997 2114 
Q 1366 2266 1113 2400 
Q 784 2572 623 2826 
Q 463 3081 463 3397 
Q 463 3744 659 4045 
Q 856 4347 1234 4503 
Q 1613 4659 2075 4659 
Q 2584 4659 2973 4495 
Q 3363 4331 3572 4012 
Q 3781 3694 3797 3291 
L 3216 3247 
Q 3169 3681 2898 3903 
Q 2628 4125 2100 4125 
Q 1550 4125 1298 3923 
Q 1047 3722 1047 3438 
Q 1047 3191 1225 3031 
Q 1400 2872 2139 2705 
Q 2878 2538 3153 2413 
Q 3553 2228 3743 1945 
Q 3934 1663 3934 1294 
Q 3934 928 3725 604 
Q 3516 281 3123 101 
Q 2731 -78 2241 -78 
Q 1619 -78 1198 103 
Q 778 284 539 648 
Q 300 1013 288 1472 
z
" transform="scale(0.015625)"/>
       <path id="ArialMT-77" d="M 1034 0 
L 19 3319 
L 600 3319 
L 1128 1403 
L 1325 691 
Q 1338 744 1497 1375 
L 2025 3319 
L 2603 3319 
L 3100 1394 
L 3266 759 
L 3456 1400 
L 4025 3319 
L 4572 3319 
L 3534 0 
L 2950 0 
L 2422 1988 
L 2294 2553 
L 1622 0 
L 1034 0 
z
" transform="scale(0.015625)"/>
       <path id="ArialMT-69" d="M 425 3934 
L 425 4581 
L 988 4581 
L 988 3934 
L 425 3934 
z
M 425 0 
L 425 3319 
L 988 3319 
L 988 0 
L 425 0 
z
" transform="scale(0.015625)"/>
       <path id="ArialMT-74" d="M 1650 503 
L 1731 6 
Q 1494 -44 1306 -44 
Q 1000 -44 831 53 
Q 663 150 594 308 
Q 525 466 525 972 
L 525 2881 
L 113 2881 
L 113 3319 
L 525 3319 
L 525 4141 
L 1084 4478 
L 1084 3319 
L 1650 3319 
L 1650 2881 
L 1084 2881 
L 1084 941 
Q 1084 700 1114 631 
Q 1144 563 1211 522 
Q 1278 481 1403 481 
Q 1497 481 1650 503 
z
" transform="scale(0.015625)"/>
       <path id="ArialMT-63" d="M 2588 1216 
L 3141 1144 
Q 3050 572 2676 248 
Q 2303 -75 1759 -75 
Q 1078 -75 664 370 
Q 250 816 250 1647 
Q 250 2184 428 2587 
Q 606 2991 970 3192 
Q 1334 3394 1763 3394 
Q 2303 3394 2647 3120 
Q 2991 2847 3088 2344 
L 2541 2259 
Q 2463 2594 2264 2762 
Q 2066 2931 1784 2931 
Q 1359 2931 1093 2626 
Q 828 2322 828 1663 
Q 828 994 1084 691 
Q 1341 388 1753 388 
Q 2084 388 2306 591 
Q 2528 794 2588 1216 
z
" transform="scale(0.015625)"/>
       <path id="ArialMT-45" d="M 506 0 
L 506 4581 
L 3819 4581 
L 3819 4041 
L 1113 4041 
L 1113 2638 
L 3647 2638 
L 3647 2100 
L 1113 2100 
L 1113 541 
L 3925 541 
L 3925 0 
L 506 0 
z
" transform="scale(0.015625)"/>
       <path id="ArialMT-61" d="M 2588 409 
Q 2275 144 1986 34 
Q 1697 -75 1366 -75 
Q 819 -75 525 192 
Q 231 459 231 875 
Q 231 1119 342 1320 
Q 453 1522 633 1644 
Q 813 1766 1038 1828 
Q 1203 1872 1538 1913 
Q 2219 1994 2541 2106 
Q 2544 2222 2544 2253 
Q 2544 2597 2384 2738 
Q 2169 2928 1744 2928 
Q 1347 2928 1158 2789 
Q 969 2650 878 2297 
L 328 2372 
Q 403 2725 575 2942 
Q 747 3159 1072 3276 
Q 1397 3394 1825 3394 
Q 2250 3394 2515 3294 
Q 2781 3194 2906 3042 
Q 3031 2891 3081 2659 
Q 3109 2516 3109 2141 
L 3109 1391 
Q 3109 606 3145 398 
Q 3181 191 3288 0 
L 2700 0 
Q 2613 175 2588 409 
z
M 2541 1666 
Q 2234 1541 1622 1453 
Q 1275 1403 1131 1340 
Q 988 1278 909 1158 
Q 831 1038 831 891 
Q 831 666 1001 516 
Q 1172 366 1500 366 
Q 1825 366 2078 508 
Q 2331 650 2450 897 
Q 2541 1088 2541 1459 
L 2541 1666 
z
" transform="scale(0.015625)"/>
      </defs>
      <use xlink:href="#ArialMT-53"/>
      <use xlink:href="#ArialMT-77" x="66.699219"/>
      <use xlink:href="#ArialMT-69" x="138.916016"/>
      <use xlink:href="#ArialMT-74" x="161.132812"/>
      <use xlink:href="#ArialMT-63" x="188.916016"/>
      <use xlink:href="#ArialMT-68" x="238.916016"/>
      <use xlink:href="#ArialMT-20" x="294.53125"/>
      <use xlink:href="#ArialMT-45" x="322.314453"/>
      <use xlink:href="#ArialMT-72" x="389.013672"/>
      <use xlink:href="#ArialMT-72" x="422.314453"/>
      <use xlink:href="#ArialMT-6f" x="455.615234"/>
      <use xlink:href="#ArialMT-72" x="511.230469"/>
      <use xlink:href="#ArialMT-20" x="544.53125"/>
      <use xlink:href="#ArialMT-52" x="572.314453"/>
      <use xlink:href="#ArialMT-61" x="644.53125"/>
      <use xlink:href="#ArialMT-74" x="700.146484"/>
      <use xlink:href="#ArialMT-65" x="727.929688"/>
     </g>
    </g>
   </g>
   <g id="PolyCollection_1">
    <defs>
     <path id="m4509fd64ae" d="M 56.93418 -50.187033 
L 54.568005 -50.187033 
L 54.22802 -50.254431 
L 53.866146 -50.321829 
L 53.483149 -50.389228 
L 53.079317 -50.456626 
L 52.654321 -50.524024 
L 52.207124 -50.591422 
L 51.735983 -50.65882 
L 51.238523 -50.726218 
L 50.711904 -50.793616 
L 50.153055 -50.861015 
L 49.558972 -50.928413 
L 48.927035 -50.995811 
L 48.25535 -51.063209 
L 47.543073 -51.130607 
L 46.790716 -51.198005 
L 46.000416 -51.265403 
L 45.176167 -51.332802 
L 44.324012 -51.4002 
L 43.452178 -51.467598 
L 42.57115 -51.534996 
L 41.693657 -51.602394 
L 40.834527 -51.669792 
L 40.010398 -51.73719 
L 39.23924 -51.804589 
L 38.539681 -51.871987 
L 37.930159 -51.939385 
L 37.427925 -52.006783 
L 37.048 -52.074181 
L 36.802161 -52.141579 
L 36.698086 -52.208977 
L 36.738746 -52.276375 
L 36.922124 -52.343774 
L 37.241302 -52.411172 
L 37.684885 -52.47857 
L 38.23774 -52.545968 
L 38.881937 -52.613366 
L 39.597813 -52.680764 
L 40.365062 -52.748162 
L 41.163769 -52.815561 
L 41.975327 -52.882959 
L 42.783208 -52.950357 
L 43.573564 -53.017755 
L 44.335637 -53.085153 
L 45.061979 -53.152551 
L 45.748458 -53.219949 
L 46.394056 -53.287348 
L 47.000468 -53.354746 
L 47.571507 -53.422144 
L 48.112394 -53.489542 
L 48.628973 -53.55694 
L 49.126955 -53.624338 
L 49.611275 -53.691736 
L 50.085617 -53.759135 
L 50.552177 -53.826533 
L 51.011654 -53.893931 
L 51.463441 -53.961329 
L 51.905969 -54.028727 
L 52.337114 -54.096125 
L 52.754584 -54.163523 
L 53.156244 -54.230922 
L 53.540302 -54.29832 
L 53.905387 -54.365718 
L 54.250511 -54.433116 
L 54.574958 -54.500514 
L 54.878166 -54.567912 
L 55.15962 -54.63531 
L 55.418808 -54.702708 
L 55.655234 -54.770107 
L 55.868491 -54.837505 
L 56.058367 -54.904903 
L 56.224956 -54.972301 
L 56.368744 -55.039699 
L 56.490653 -55.107097 
L 56.592026 -55.174495 
L 56.674562 -55.241894 
L 56.740207 -55.309292 
L 56.791023 -55.37669 
L 56.82904 -55.444088 
L 56.856136 -55.511486 
L 56.873925 -55.578884 
L 56.883687 -55.646282 
L 56.886335 -55.713681 
L 56.882423 -55.781079 
L 56.872187 -55.848477 
L 56.855625 -55.915875 
L 56.832605 -55.983273 
L 56.802992 -56.050671 
L 56.766795 -56.118069 
L 56.724299 -56.185468 
L 56.67619 -56.252866 
L 56.623635 -56.320264 
L 56.56832 -56.387662 
L 56.51241 -56.45506 
L 56.458448 -56.522458 
L 56.409187 -56.589856 
L 56.367367 -56.657254 
L 56.335469 -56.724653 
L 56.315474 -56.792051 
L 56.308662 -56.859449 
L 56.93418 -56.859449 
L 56.93418 -56.859449 
L 56.93418 -56.792051 
L 56.93418 -56.724653 
L 56.93418 -56.657254 
L 56.93418 -56.589856 
L 56.93418 -56.522458 
L 56.93418 -56.45506 
L 56.93418 -56.387662 
L 56.93418 -56.320264 
L 56.93418 -56.252866 
L 56.93418 -56.185468 
L 56.93418 -56.118069 
L 56.93418 -56.050671 
L 56.93418 -55.983273 
L 56.93418 -55.915875 
L 56.93418 -55.848477 
L 56.93418 -55.781079 
L 56.93418 -55.713681 
L 56.93418 -55.646282 
L 56.93418 -55.578884 
L 56.93418 -55.511486 
L 56.93418 -55.444088 
L 56.93418 -55.37669 
L 56.93418 -55.309292 
L 56.93418 -55.241894 
L 56.93418 -55.174495 
L 56.93418 -55.107097 
L 56.93418 -55.039699 
L 56.93418 -54.972301 
L 56.93418 -54.904903 
L 56.93418 -54.837505 
L 56.93418 -54.770107 
L 56.93418 -54.702708 
L 56.93418 -54.63531 
L 56.93418 -54.567912 
L 56.93418 -54.500514 
L 56.93418 -54.433116 
L 56.93418 -54.365718 
L 56.93418 -54.29832 
L 56.93418 -54.230922 
L 56.93418 -54.163523 
L 56.93418 -54.096125 
L 56.93418 -54.028727 
L 56.93418 -53.961329 
L 56.93418 -53.893931 
L 56.93418 -53.826533 
L 56.93418 -53.759135 
L 56.93418 -53.691736 
L 56.93418 -53.624338 
L 56.93418 -53.55694 
L 56.93418 -53.489542 
L 56.93418 -53.422144 
L 56.93418 -53.354746 
L 56.93418 -53.287348 
L 56.93418 -53.219949 
L 56.93418 -53.152551 
L 56.93418 -53.085153 
L 56.93418 -53.017755 
L 56.93418 -52.950357 
L 56.93418 -52.882959 
L 56.93418 -52.815561 
L 56.93418 -52.748162 
L 56.93418 -52.680764 
L 56.93418 -52.613366 
L 56.93418 -52.545968 
L 56.93418 -52.47857 
L 56.93418 -52.411172 
L 56.93418 -52.343774 
L 56.93418 -52.276375 
L 56.93418 -52.208977 
L 56.93418 -52.141579 
L 56.93418 -52.074181 
L 56.93418 -52.006783 
L 56.93418 -51.939385 
L 56.93418 -51.871987 
L 56.93418 -51.804589 
L 56.93418 -51.73719 
L 56.93418 -51.669792 
L 56.93418 -51.602394 
L 56.93418 -51.534996 
L 56.93418 -51.467598 
L 56.93418 -51.4002 
L 56.93418 -51.332802 
L 56.93418 -51.265403 
L 56.93418 -51.198005 
L 56.93418 -51.130607 
L 56.93418 -51.063209 
L 56.93418 -50.995811 
L 56.93418 -50.928413 
L 56.93418 -50.861015 
L 56.93418 -50.793616 
L 56.93418 -50.726218 
L 56.93418 -50.65882 
L 56.93418 -50.591422 
L 56.93418 -50.524024 
L 56.93418 -50.456626 
L 56.93418 -50.389228 
L 56.93418 -50.321829 
L 56.93418 -50.254431 
L 56.93418 -50.187033 
z
" style="stroke: #3d3d3d; stroke-width: 0.5"/>
    </defs>
    <g clip-path="url(#p60e272a5dd)">
     <use xlink:href="#m4509fd64ae" x="0" y="240.48" style="fill: #666666; stroke: #3d3d3d; stroke-width: 0.5"/>
    </g>
   </g>
   <g id="PolyCollection_2">
    <defs>
     <path id="m0c4a1d4092" d="M 61.398205 -49.186023 
L 56.93418 -49.186023 
L 56.93418 -49.257978 
L 56.93418 -49.329933 
L 56.93418 -49.401889 
L 56.93418 -49.473844 
L 56.93418 -49.545799 
L 56.93418 -49.617754 
L 56.93418 -49.689709 
L 56.93418 -49.761664 
L 56.93418 -49.833619 
L 56.93418 -49.905574 
L 56.93418 -49.97753 
L 56.93418 -50.049485 
L 56.93418 -50.12144 
L 56.93418 -50.193395 
L 56.93418 -50.26535 
L 56.93418 -50.337305 
L 56.93418 -50.40926 
L 56.93418 -50.481216 
L 56.93418 -50.553171 
L 56.93418 -50.625126 
L 56.93418 -50.697081 
L 56.93418 -50.769036 
L 56.93418 -50.840991 
L 56.93418 -50.912946 
L 56.93418 -50.984902 
L 56.93418 -51.056857 
L 56.93418 -51.128812 
L 56.93418 -51.200767 
L 56.93418 -51.272722 
L 56.93418 -51.344677 
L 56.93418 -51.416632 
L 56.93418 -51.488587 
L 56.93418 -51.560543 
L 56.93418 -51.632498 
L 56.93418 -51.704453 
L 56.93418 -51.776408 
L 56.93418 -51.848363 
L 56.93418 -51.920318 
L 56.93418 -51.992273 
L 56.93418 -52.064229 
L 56.93418 -52.136184 
L 56.93418 -52.208139 
L 56.93418 -52.280094 
L 56.93418 -52.352049 
L 56.93418 -52.424004 
L 56.93418 -52.495959 
L 56.93418 -52.567915 
L 56.93418 -52.63987 
L 56.93418 -52.711825 
L 56.93418 -52.78378 
L 56.93418 -52.855735 
L 56.93418 -52.92769 
L 56.93418 -52.999645 
L 56.93418 -53.0716 
L 56.93418 -53.143556 
L 56.93418 -53.215511 
L 56.93418 -53.287466 
L 56.93418 -53.359421 
L 56.93418 -53.431376 
L 56.93418 -53.503331 
L 56.93418 -53.575286 
L 56.93418 -53.647242 
L 56.93418 -53.719197 
L 56.93418 -53.791152 
L 56.93418 -53.863107 
L 56.93418 -53.935062 
L 56.93418 -54.007017 
L 56.93418 -54.078972 
L 56.93418 -54.150927 
L 56.93418 -54.222883 
L 56.93418 -54.294838 
L 56.93418 -54.366793 
L 56.93418 -54.438748 
L 56.93418 -54.510703 
L 56.93418 -54.582658 
L 56.93418 -54.654613 
L 56.93418 -54.726569 
L 56.93418 -54.798524 
L 56.93418 -54.870479 
L 56.93418 -54.942434 
L 56.93418 -55.014389 
L 56.93418 -55.086344 
L 56.93418 -55.158299 
L 56.93418 -55.230255 
L 56.93418 -55.30221 
L 56.93418 -55.374165 
L 56.93418 -55.44612 
L 56.93418 -55.518075 
L 56.93418 -55.59003 
L 56.93418 -55.661985 
L 56.93418 -55.73394 
L 56.93418 -55.805896 
L 56.93418 -55.877851 
L 56.93418 -55.949806 
L 56.93418 -56.021761 
L 56.93418 -56.093716 
L 56.93418 -56.165671 
L 56.93418 -56.237626 
L 56.93418 -56.309582 
L 57.686266 -56.309582 
L 57.686266 -56.309582 
L 57.712326 -56.237626 
L 57.732408 -56.165671 
L 57.747147 -56.093716 
L 57.757343 -56.021761 
L 57.763807 -55.949806 
L 57.767219 -55.877851 
L 57.768013 -55.805896 
L 57.766298 -55.73394 
L 57.761846 -55.661985 
L 57.754126 -55.59003 
L 57.742403 -55.518075 
L 57.725869 -55.44612 
L 57.703795 -55.374165 
L 57.675676 -55.30221 
L 57.641361 -55.230255 
L 57.601133 -55.158299 
L 57.555755 -55.086344 
L 57.506456 -55.014389 
L 57.454894 -54.942434 
L 57.403082 -54.870479 
L 57.353317 -54.798524 
L 57.30811 -54.726569 
L 57.270145 -54.654613 
L 57.242265 -54.582658 
L 57.227484 -54.510703 
L 57.229026 -54.438748 
L 57.250369 -54.366793 
L 57.295278 -54.294838 
L 57.367807 -54.222883 
L 57.472257 -54.150927 
L 57.613066 -54.078972 
L 57.794641 -54.007017 
L 58.02113 -53.935062 
L 58.296147 -53.863107 
L 58.622492 -53.791152 
L 59.001882 -53.719197 
L 59.434746 -53.647242 
L 59.920102 -53.575286 
L 60.455557 -53.503331 
L 61.037426 -53.431376 
L 61.660971 -53.359421 
L 62.320738 -53.287466 
L 63.010937 -53.215511 
L 63.725838 -53.143556 
L 64.460108 -53.0716 
L 65.209058 -52.999645 
L 65.968762 -52.92769 
L 66.736034 -52.855735 
L 67.50828 -52.78378 
L 68.283243 -52.711825 
L 69.058691 -52.63987 
L 69.832088 -52.567915 
L 70.600306 -52.495959 
L 71.359394 -52.424004 
L 72.104443 -52.352049 
L 72.829531 -52.280094 
L 73.527759 -52.208139 
L 74.191342 -52.136184 
L 74.811744 -52.064229 
L 75.379858 -51.992273 
L 75.886204 -51.920318 
L 76.321182 -51.848363 
L 76.675371 -51.776408 
L 76.939914 -51.704453 
L 77.106975 -51.632498 
L 77.170273 -51.560543 
L 77.125665 -51.488587 
L 76.971704 -51.416632 
L 76.710139 -51.344677 
L 76.346238 -51.272722 
L 75.888891 -51.200767 
L 75.350423 -51.128812 
L 74.746089 -51.056857 
L 74.09328 -50.984902 
L 73.410487 -50.912946 
L 72.716109 -50.840991 
L 72.027245 -50.769036 
L 71.358581 -50.697081 
L 70.721493 -50.625126 
L 70.123481 -50.553171 
L 69.567958 -50.481216 
L 69.054432 -50.40926 
L 68.579018 -50.337305 
L 68.135223 -50.26535 
L 67.714882 -50.193395 
L 67.309132 -50.12144 
L 66.909328 -50.049485 
L 66.507793 -49.97753 
L 66.098361 -49.905574 
L 65.676683 -49.833619 
L 65.240309 -49.761664 
L 64.788593 -49.689709 
L 64.32246 -49.617754 
L 63.844113 -49.545799 
L 63.35671 -49.473844 
L 62.864076 -49.401889 
L 62.370455 -49.329933 
L 61.880317 -49.257978 
L 61.398205 -49.186023 
z
" style="stroke: #3d3d3d; stroke-width: 0.5"/>
    </defs>
    <g clip-path="url(#p60e272a5dd)">
     <use xlink:href="#m0c4a1d4092" x="0" y="240.48" style="fill: #9372b2; stroke: #3d3d3d; stroke-width: 0.5"/>
    </g>
   </g>
   <g id="PolyCollection_3">
    <defs>
     <path id="m74b5901571" d="M 107.524414 -43.855023 
L 106.169444 -43.855023 
L 106.053299 -44.328782 
L 105.930459 -44.802542 
L 105.800349 -45.276301 
L 105.662395 -45.75006 
L 105.516058 -46.22382 
L 105.360861 -46.697579 
L 105.196416 -47.171339 
L 105.022435 -47.645098 
L 104.838739 -48.118858 
L 104.645255 -48.592617 
L 104.441996 -49.066376 
L 104.229044 -49.540136 
L 104.006516 -50.013895 
L 103.77453 -50.487655 
L 103.533167 -50.961414 
L 103.282432 -51.435173 
L 103.022224 -51.908933 
L 102.752307 -52.382692 
L 102.472287 -52.856452 
L 102.18161 -53.330211 
L 101.879564 -53.803971 
L 101.565298 -54.27773 
L 101.237861 -54.751489 
L 100.896248 -55.225249 
L 100.539478 -55.699008 
L 100.166669 -56.172768 
L 99.777137 -56.646527 
L 99.370498 -57.120287 
L 98.946769 -57.594046 
L 98.506467 -58.067805 
L 98.050689 -58.541565 
L 97.581171 -59.015324 
L 97.100316 -59.489084 
L 96.611184 -59.962843 
L 96.117436 -60.436602 
L 95.623244 -60.910362 
L 95.133151 -61.384121 
L 94.651903 -61.857881 
L 94.18426 -62.33164 
L 93.734787 -62.8054 
L 93.307666 -63.279159 
L 92.906516 -63.752918 
L 92.534259 -64.226678 
L 92.193038 -64.700437 
L 91.884187 -65.174197 
L 91.608272 -65.647956 
L 91.365194 -66.121716 
L 91.15434 -66.595475 
L 90.974779 -67.069234 
L 90.825479 -67.542994 
L 90.705521 -68.016753 
L 90.614297 -68.490513 
L 90.551662 -68.964272 
L 90.518023 -69.438031 
L 90.514364 -69.911791 
L 90.542192 -70.38555 
L 90.603405 -70.85931 
L 90.700102 -71.333069 
L 90.834347 -71.806829 
L 91.007909 -72.280588 
L 91.221998 -72.754347 
L 91.47704 -73.228107 
L 91.772486 -73.701866 
L 92.106709 -74.175626 
L 92.476966 -74.649385 
L 92.879454 -75.123145 
L 93.309447 -75.596904 
L 93.761503 -76.070663 
L 94.229725 -76.544423 
L 94.708047 -77.018182 
L 95.19053 -77.491942 
L 95.67164 -77.965701 
L 96.146477 -78.43946 
L 96.610952 -78.91322 
L 97.061899 -79.386979 
L 97.497101 -79.860739 
L 97.915266 -80.334498 
L 98.315924 -80.808258 
L 98.699296 -81.282017 
L 99.066126 -81.755776 
L 99.417504 -82.229536 
L 99.754707 -82.703295 
L 100.079049 -83.177055 
L 100.391776 -83.650814 
L 100.693993 -84.124574 
L 100.986638 -84.598333 
L 101.270479 -85.072092 
L 101.546151 -85.545852 
L 101.814203 -86.019611 
L 102.075153 -86.493371 
L 102.329538 -86.96713 
L 102.577947 -87.440889 
L 102.821042 -87.914649 
L 103.059547 -88.388408 
L 103.294217 -88.862168 
L 103.525796 -89.335927 
L 103.754949 -89.809687 
L 103.982202 -90.283446 
L 104.20788 -90.757205 
L 107.524414 -90.757205 
L 107.524414 -90.757205 
L 107.524414 -90.283446 
L 107.524414 -89.809687 
L 107.524414 -89.335927 
L 107.524414 -88.862168 
L 107.524414 -88.388408 
L 107.524414 -87.914649 
L 107.524414 -87.440889 
L 107.524414 -86.96713 
L 107.524414 -86.493371 
L 107.524414 -86.019611 
L 107.524414 -85.545852 
L 107.524414 -85.072092 
L 107.524414 -84.598333 
L 107.524414 -84.124574 
L 107.524414 -83.650814 
L 107.524414 -83.177055 
L 107.524414 -82.703295 
L 107.524414 -82.229536 
L 107.524414 -81.755776 
L 107.524414 -81.282017 
L 107.524414 -80.808258 
L 107.524414 -80.334498 
L 107.524414 -79.860739 
L 107.524414 -79.386979 
L 107.524414 -78.91322 
L 107.524414 -78.43946 
L 107.524414 -77.965701 
L 107.524414 -77.491942 
L 107.524414 -77.018182 
L 107.524414 -76.544423 
L 107.524414 -76.070663 
L 107.524414 -75.596904 
L 107.524414 -75.123145 
L 107.524414 -74.649385 
L 107.524414 -74.175626 
L 107.524414 -73.701866 
L 107.524414 -73.228107 
L 107.524414 -72.754347 
L 107.524414 -72.280588 
L 107.524414 -71.806829 
L 107.524414 -71.333069 
L 107.524414 -70.85931 
L 107.524414 -70.38555 
L 107.524414 -69.911791 
L 107.524414 -69.438031 
L 107.524414 -68.964272 
L 107.524414 -68.490513 
L 107.524414 -68.016753 
L 107.524414 -67.542994 
L 107.524414 -67.069234 
L 107.524414 -66.595475 
L 107.524414 -66.121716 
L 107.524414 -65.647956 
L 107.524414 -65.174197 
L 107.524414 -64.700437 
L 107.524414 -64.226678 
L 107.524414 -63.752918 
L 107.524414 -63.279159 
L 107.524414 -62.8054 
L 107.524414 -62.33164 
L 107.524414 -61.857881 
L 107.524414 -61.384121 
L 107.524414 -60.910362 
L 107.524414 -60.436602 
L 107.524414 -59.962843 
L 107.524414 -59.489084 
L 107.524414 -59.015324 
L 107.524414 -58.541565 
L 107.524414 -58.067805 
L 107.524414 -57.594046 
L 107.524414 -57.120287 
L 107.524414 -56.646527 
L 107.524414 -56.172768 
L 107.524414 -55.699008 
L 107.524414 -55.225249 
L 107.524414 -54.751489 
L 107.524414 -54.27773 
L 107.524414 -53.803971 
L 107.524414 -53.330211 
L 107.524414 -52.856452 
L 107.524414 -52.382692 
L 107.524414 -51.908933 
L 107.524414 -51.435173 
L 107.524414 -50.961414 
L 107.524414 -50.487655 
L 107.524414 -50.013895 
L 107.524414 -49.540136 
L 107.524414 -49.066376 
L 107.524414 -48.592617 
L 107.524414 -48.118858 
L 107.524414 -47.645098 
L 107.524414 -47.171339 
L 107.524414 -46.697579 
L 107.524414 -46.22382 
L 107.524414 -45.75006 
L 107.524414 -45.276301 
L 107.524414 -44.802542 
L 107.524414 -44.328782 
L 107.524414 -43.855023 
z
" style="stroke: #3d3d3d; stroke-width: 0.5"/>
    </defs>
    <g clip-path="url(#p60e272a5dd)">
     <use xlink:href="#m74b5901571" x="0" y="240.48" style="fill: #666666; stroke: #3d3d3d; stroke-width: 0.5"/>
    </g>
   </g>
   <g id="PolyCollection_4">
    <defs>
     <path id="m33d7e6f677" d="M 109.972607 -43.855023 
L 107.524414 -43.855023 
L 107.524414 -44.283133 
L 107.524414 -44.711242 
L 107.524414 -45.139352 
L 107.524414 -45.567462 
L 107.524414 -45.995572 
L 107.524414 -46.423682 
L 107.524414 -46.851791 
L 107.524414 -47.279901 
L 107.524414 -47.708011 
L 107.524414 -48.136121 
L 107.524414 -48.564231 
L 107.524414 -48.992341 
L 107.524414 -49.42045 
L 107.524414 -49.84856 
L 107.524414 -50.27667 
L 107.524414 -50.70478 
L 107.524414 -51.13289 
L 107.524414 -51.561 
L 107.524414 -51.989109 
L 107.524414 -52.417219 
L 107.524414 -52.845329 
L 107.524414 -53.273439 
L 107.524414 -53.701549 
L 107.524414 -54.129658 
L 107.524414 -54.557768 
L 107.524414 -54.985878 
L 107.524414 -55.413988 
L 107.524414 -55.842098 
L 107.524414 -56.270208 
L 107.524414 -56.698317 
L 107.524414 -57.126427 
L 107.524414 -57.554537 
L 107.524414 -57.982647 
L 107.524414 -58.410757 
L 107.524414 -58.838866 
L 107.524414 -59.266976 
L 107.524414 -59.695086 
L 107.524414 -60.123196 
L 107.524414 -60.551306 
L 107.524414 -60.979416 
L 107.524414 -61.407525 
L 107.524414 -61.835635 
L 107.524414 -62.263745 
L 107.524414 -62.691855 
L 107.524414 -63.119965 
L 107.524414 -63.548075 
L 107.524414 -63.976184 
L 107.524414 -64.404294 
L 107.524414 -64.832404 
L 107.524414 -65.260514 
L 107.524414 -65.688624 
L 107.524414 -66.116733 
L 107.524414 -66.544843 
L 107.524414 -66.972953 
L 107.524414 -67.401063 
L 107.524414 -67.829173 
L 107.524414 -68.257283 
L 107.524414 -68.685392 
L 107.524414 -69.113502 
L 107.524414 -69.541612 
L 107.524414 -69.969722 
L 107.524414 -70.397832 
L 107.524414 -70.825941 
L 107.524414 -71.254051 
L 107.524414 -71.682161 
L 107.524414 -72.110271 
L 107.524414 -72.538381 
L 107.524414 -72.966491 
L 107.524414 -73.3946 
L 107.524414 -73.82271 
L 107.524414 -74.25082 
L 107.524414 -74.67893 
L 107.524414 -75.10704 
L 107.524414 -75.53515 
L 107.524414 -75.963259 
L 107.524414 -76.391369 
L 107.524414 -76.819479 
L 107.524414 -77.247589 
L 107.524414 -77.675699 
L 107.524414 -78.103808 
L 107.524414 -78.531918 
L 107.524414 -78.960028 
L 107.524414 -79.388138 
L 107.524414 -79.816248 
L 107.524414 -80.244358 
L 107.524414 -80.672467 
L 107.524414 -81.100577 
L 107.524414 -81.528687 
L 107.524414 -81.956797 
L 107.524414 -82.384907 
L 107.524414 -82.813016 
L 107.524414 -83.241126 
L 107.524414 -83.669236 
L 107.524414 -84.097346 
L 107.524414 -84.525456 
L 107.524414 -84.953566 
L 107.524414 -85.381675 
L 107.524414 -85.809785 
L 107.524414 -86.237895 
L 108.386504 -86.237895 
L 108.386504 -86.237895 
L 108.419766 -85.809785 
L 108.451501 -85.381675 
L 108.483194 -84.953566 
L 108.51667 -84.525456 
L 108.554032 -84.097346 
L 108.597591 -83.669236 
L 108.649789 -83.241126 
L 108.713114 -82.813016 
L 108.790029 -82.384907 
L 108.882902 -81.956797 
L 108.993942 -81.528687 
L 109.125155 -81.100577 
L 109.278292 -80.672467 
L 109.454825 -80.244358 
L 109.655906 -79.816248 
L 109.882352 -79.388138 
L 110.13462 -78.960028 
L 110.412802 -78.531918 
L 110.716619 -78.103808 
L 111.045435 -77.675699 
L 111.39828 -77.247589 
L 111.773892 -76.819479 
L 112.170768 -76.391369 
L 112.587227 -75.963259 
L 113.021476 -75.53515 
L 113.471668 -75.10704 
L 113.935944 -74.67893 
L 114.412458 -74.25082 
L 114.899364 -73.82271 
L 115.394784 -73.3946 
L 115.896732 -72.966491 
L 116.40304 -72.538381 
L 116.911256 -72.110271 
L 117.418568 -71.682161 
L 117.921752 -71.254051 
L 118.417165 -70.825941 
L 118.900801 -70.397832 
L 119.368405 -69.969722 
L 119.815665 -69.541612 
L 120.238444 -69.113502 
L 120.633067 -68.685392 
L 120.9966 -68.257283 
L 121.327126 -67.829173 
L 121.62396 -67.401063 
L 121.887796 -66.972953 
L 122.120738 -66.544843 
L 122.326221 -66.116733 
L 122.50881 -65.688624 
L 122.673883 -65.260514 
L 122.827214 -64.832404 
L 122.974501 -64.404294 
L 123.120859 -63.976184 
L 123.270332 -63.548075 
L 123.425465 -63.119965 
L 123.586975 -62.691855 
L 123.753553 -62.263745 
L 123.921827 -61.835635 
L 124.086486 -61.407525 
L 124.240566 -60.979416 
L 124.375876 -60.551306 
L 124.483535 -60.123196 
L 124.554574 -59.695086 
L 124.58055 -59.266976 
L 124.554138 -58.838866 
L 124.469623 -58.410757 
L 124.32328 -57.982647 
L 124.113596 -57.554537 
L 123.841322 -57.126427 
L 123.509361 -56.698317 
L 123.122497 -56.270208 
L 122.687007 -55.842098 
L 122.210194 -55.413988 
L 121.699878 -54.985878 
L 121.163905 -54.557768 
L 120.609714 -54.129658 
L 120.043991 -53.701549 
L 119.472445 -53.273439 
L 118.899707 -52.845329 
L 118.329358 -52.417219 
L 117.76405 -51.989109 
L 117.205713 -51.561 
L 116.655805 -51.13289 
L 116.115557 -50.70478 
L 115.586199 -50.27667 
L 115.069123 -49.84856 
L 114.565973 -49.42045 
L 114.078648 -48.992341 
L 113.609235 -48.564231 
L 113.159872 -48.136121 
L 112.732575 -47.708011 
L 112.329055 -47.279901 
L 111.950544 -46.851791 
L 111.59767 -46.423682 
L 111.270379 -45.995572 
L 110.96793 -45.567462 
L 110.688957 -45.139352 
L 110.431585 -44.711242 
L 110.193595 -44.283133 
L 109.972607 -43.855023 
z
" style="stroke: #3d3d3d; stroke-width: 0.5"/>
    </defs>
    <g clip-path="url(#p60e272a5dd)">
     <use xlink:href="#m33d7e6f677" x="0" y="240.48" style="fill: #9372b2; stroke: #3d3d3d; stroke-width: 0.5"/>
    </g>
   </g>
   <g id="PolyCollection_5">
    <defs>
     <path id="m73d6a96265" d="M 158.114648 -43.855023 
L 148.653211 -43.855023 
L 148.314845 -45.684219 
L 148.012636 -47.513416 
L 147.748375 -49.342612 
L 147.523131 -51.171809 
L 147.337269 -53.001005 
L 147.190503 -54.830202 
L 147.081963 -56.659398 
L 147.010282 -58.488595 
L 146.973694 -60.317791 
L 146.970133 -62.146988 
L 146.997335 -63.976184 
L 147.052935 -65.805381 
L 147.134556 -67.634577 
L 147.23988 -69.463774 
L 147.366709 -71.29297 
L 147.513009 -73.122167 
L 147.676938 -74.951363 
L 147.856857 -76.78056 
L 148.051329 -78.609756 
L 148.259102 -80.438953 
L 148.479093 -82.268149 
L 148.710353 -84.097346 
L 148.952032 -85.926542 
L 149.203351 -87.755739 
L 149.463561 -89.584935 
L 149.731911 -91.414132 
L 150.007624 -93.243329 
L 150.289869 -95.072525 
L 150.577745 -96.901722 
L 150.870266 -98.730918 
L 151.166358 -100.560115 
L 151.464856 -102.389311 
L 151.764507 -104.218508 
L 152.063983 -106.047704 
L 152.361894 -107.876901 
L 152.656806 -109.706097 
L 152.947264 -111.535294 
L 153.231818 -113.36449 
L 153.509052 -115.193687 
L 153.777611 -117.022883 
L 154.036235 -118.85208 
L 154.28379 -120.681276 
L 154.519291 -122.510473 
L 154.741935 -124.339669 
L 154.951121 -126.168866 
L 155.146463 -127.998062 
L 155.327807 -129.827259 
L 155.495228 -131.656455 
L 155.649027 -133.485652 
L 155.789717 -135.314848 
L 155.918002 -137.144045 
L 156.03475 -138.973241 
L 156.140953 -140.802438 
L 156.23769 -142.631634 
L 156.326085 -144.460831 
L 156.407264 -146.290027 
L 156.482308 -148.119224 
L 156.55222 -149.94842 
L 156.61789 -151.777617 
L 156.680065 -153.606813 
L 156.739338 -155.43601 
L 156.796135 -157.265206 
L 156.850713 -159.094403 
L 156.903175 -160.923599 
L 156.953481 -162.752796 
L 157.001477 -164.581992 
L 157.046916 -166.411189 
L 157.089498 -168.240385 
L 157.128894 -170.069582 
L 157.164783 -171.898778 
L 157.19688 -173.727975 
L 157.224958 -175.557171 
L 157.24887 -177.386368 
L 157.26856 -179.215565 
L 157.284074 -181.044761 
L 157.295557 -182.873958 
L 157.303252 -184.703154 
L 157.307488 -186.532351 
L 157.308668 -188.361547 
L 157.307255 -190.190744 
L 157.303751 -192.01994 
L 157.298686 -193.849137 
L 157.292596 -195.678333 
L 157.28601 -197.50753 
L 157.27944 -199.336726 
L 157.273367 -201.165923 
L 157.268238 -202.995119 
L 157.264456 -204.824316 
L 157.262381 -206.653512 
L 157.262324 -208.482709 
L 157.264551 -210.311905 
L 157.269281 -212.141102 
L 157.276687 -213.970298 
L 157.286894 -215.799495 
L 157.299982 -217.628691 
L 157.315985 -219.457888 
L 157.334885 -221.287084 
L 157.356621 -223.116281 
L 157.381079 -224.945477 
L 158.114648 -224.945477 
L 158.114648 -224.945477 
L 158.114648 -223.116281 
L 158.114648 -221.287084 
L 158.114648 -219.457888 
L 158.114648 -217.628691 
L 158.114648 -215.799495 
L 158.114648 -213.970298 
L 158.114648 -212.141102 
L 158.114648 -210.311905 
L 158.114648 -208.482709 
L 158.114648 -206.653512 
L 158.114648 -204.824316 
L 158.114648 -202.995119 
L 158.114648 -201.165923 
L 158.114648 -199.336726 
L 158.114648 -197.50753 
L 158.114648 -195.678333 
L 158.114648 -193.849137 
L 158.114648 -192.01994 
L 158.114648 -190.190744 
L 158.114648 -188.361547 
L 158.114648 -186.532351 
L 158.114648 -184.703154 
L 158.114648 -182.873958 
L 158.114648 -181.044761 
L 158.114648 -179.215565 
L 158.114648 -177.386368 
L 158.114648 -175.557171 
L 158.114648 -173.727975 
L 158.114648 -171.898778 
L 158.114648 -170.069582 
L 158.114648 -168.240385 
L 158.114648 -166.411189 
L 158.114648 -164.581992 
L 158.114648 -162.752796 
L 158.114648 -160.923599 
L 158.114648 -159.094403 
L 158.114648 -157.265206 
L 158.114648 -155.43601 
L 158.114648 -153.606813 
L 158.114648 -151.777617 
L 158.114648 -149.94842 
L 158.114648 -148.119224 
L 158.114648 -146.290027 
L 158.114648 -144.460831 
L 158.114648 -142.631634 
L 158.114648 -140.802438 
L 158.114648 -138.973241 
L 158.114648 -137.144045 
L 158.114648 -135.314848 
L 158.114648 -133.485652 
L 158.114648 -131.656455 
L 158.114648 -129.827259 
L 158.114648 -127.998062 
L 158.114648 -126.168866 
L 158.114648 -124.339669 
L 158.114648 -122.510473 
L 158.114648 -120.681276 
L 158.114648 -118.85208 
L 158.114648 -117.022883 
L 158.114648 -115.193687 
L 158.114648 -113.36449 
L 158.114648 -111.535294 
L 158.114648 -109.706097 
L 158.114648 -107.876901 
L 158.114648 -106.047704 
L 158.114648 -104.218508 
L 158.114648 -102.389311 
L 158.114648 -100.560115 
L 158.114648 -98.730918 
L 158.114648 -96.901722 
L 158.114648 -95.072525 
L 158.114648 -93.243329 
L 158.114648 -91.414132 
L 158.114648 -89.584935 
L 158.114648 -87.755739 
L 158.114648 -85.926542 
L 158.114648 -84.097346 
L 158.114648 -82.268149 
L 158.114648 -80.438953 
L 158.114648 -78.609756 
L 158.114648 -76.78056 
L 158.114648 -74.951363 
L 158.114648 -73.122167 
L 158.114648 -71.29297 
L 158.114648 -69.463774 
L 158.114648 -67.634577 
L 158.114648 -65.805381 
L 158.114648 -63.976184 
L 158.114648 -62.146988 
L 158.114648 -60.317791 
L 158.114648 -58.488595 
L 158.114648 -56.659398 
L 158.114648 -54.830202 
L 158.114648 -53.001005 
L 158.114648 -51.171809 
L 158.114648 -49.342612 
L 158.114648 -47.513416 
L 158.114648 -45.684219 
L 158.114648 -43.855023 
z
" style="stroke: #3d3d3d; stroke-width: 0.5"/>
    </defs>
    <g clip-path="url(#p60e272a5dd)">
     <use xlink:href="#m73d6a96265" x="0" y="240.48" style="fill: #666666; stroke: #3d3d3d; stroke-width: 0.5"/>
    </g>
   </g>
   <g id="PolyCollection_6">
    <defs>
     <path id="m65a42959f2" d="M 169.389044 -43.855023 
L 158.114648 -43.855023 
L 158.114648 -45.219169 
L 158.114648 -46.583316 
L 158.114648 -47.947462 
L 158.114648 -49.311609 
L 158.114648 -50.675755 
L 158.114648 -52.039902 
L 158.114648 -53.404049 
L 158.114648 -54.768195 
L 158.114648 -56.132342 
L 158.114648 -57.496488 
L 158.114648 -58.860635 
L 158.114648 -60.224781 
L 158.114648 -61.588928 
L 158.114648 -62.953074 
L 158.114648 -64.317221 
L 158.114648 -65.681368 
L 158.114648 -67.045514 
L 158.114648 -68.409661 
L 158.114648 -69.773807 
L 158.114648 -71.137954 
L 158.114648 -72.5021 
L 158.114648 -73.866247 
L 158.114648 -75.230393 
L 158.114648 -76.59454 
L 158.114648 -77.958686 
L 158.114648 -79.322833 
L 158.114648 -80.68698 
L 158.114648 -82.051126 
L 158.114648 -83.415273 
L 158.114648 -84.779419 
L 158.114648 -86.143566 
L 158.114648 -87.507712 
L 158.114648 -88.871859 
L 158.114648 -90.236005 
L 158.114648 -91.600152 
L 158.114648 -92.964299 
L 158.114648 -94.328445 
L 158.114648 -95.692592 
L 158.114648 -97.056738 
L 158.114648 -98.420885 
L 158.114648 -99.785031 
L 158.114648 -101.149178 
L 158.114648 -102.513324 
L 158.114648 -103.877471 
L 158.114648 -105.241617 
L 158.114648 -106.605764 
L 158.114648 -107.969911 
L 158.114648 -109.334057 
L 158.114648 -110.698204 
L 158.114648 -112.06235 
L 158.114648 -113.426497 
L 158.114648 -114.790643 
L 158.114648 -116.15479 
L 158.114648 -117.518936 
L 158.114648 -118.883083 
L 158.114648 -120.24723 
L 158.114648 -121.611376 
L 158.114648 -122.975523 
L 158.114648 -124.339669 
L 158.114648 -125.703816 
L 158.114648 -127.067962 
L 158.114648 -128.432109 
L 158.114648 -129.796255 
L 158.114648 -131.160402 
L 158.114648 -132.524548 
L 158.114648 -133.888695 
L 158.114648 -135.252842 
L 158.114648 -136.616988 
L 158.114648 -137.981135 
L 158.114648 -139.345281 
L 158.114648 -140.709428 
L 158.114648 -142.073574 
L 158.114648 -143.437721 
L 158.114648 -144.801867 
L 158.114648 -146.166014 
L 158.114648 -147.530161 
L 158.114648 -148.894307 
L 158.114648 -150.258454 
L 158.114648 -151.6226 
L 158.114648 -152.986747 
L 158.114648 -154.350893 
L 158.114648 -155.71504 
L 158.114648 -157.079186 
L 158.114648 -158.443333 
L 158.114648 -159.807479 
L 158.114648 -161.171626 
L 158.114648 -162.535773 
L 158.114648 -163.899919 
L 158.114648 -165.264066 
L 158.114648 -166.628212 
L 158.114648 -167.992359 
L 158.114648 -169.356505 
L 158.114648 -170.720652 
L 158.114648 -172.084798 
L 158.114648 -173.448945 
L 158.114648 -174.813092 
L 158.114648 -176.177238 
L 158.114648 -177.541385 
L 158.114648 -178.905531 
L 158.438739 -178.905531 
L 158.438739 -178.905531 
L 158.436166 -177.541385 
L 158.428567 -176.177238 
L 158.4163 -174.813092 
L 158.399926 -173.448945 
L 158.380174 -172.084798 
L 158.35788 -170.720652 
L 158.333933 -169.356505 
L 158.309216 -167.992359 
L 158.284555 -166.628212 
L 158.260672 -165.264066 
L 158.238161 -163.899919 
L 158.217468 -162.535773 
L 158.198888 -161.171626 
L 158.182573 -159.807479 
L 158.168552 -158.443333 
L 158.156749 -157.079186 
L 158.147009 -155.71504 
L 158.13913 -154.350893 
L 158.132876 -152.986747 
L 158.128005 -151.6226 
L 158.124281 -150.258454 
L 158.121485 -148.894307 
L 158.119424 -147.530161 
L 158.117932 -146.166014 
L 158.11687 -144.801867 
L 158.116128 -143.437721 
L 158.115618 -142.073574 
L 158.115274 -140.709428 
L 158.115045 -139.345281 
L 158.114897 -137.981135 
L 158.114801 -136.616988 
L 158.114741 -135.252842 
L 158.114704 -133.888695 
L 158.114681 -132.524548 
L 158.114669 -131.160402 
L 158.114662 -129.796255 
L 158.114659 -128.432109 
L 158.114661 -127.067962 
L 158.114667 -125.703816 
L 158.114678 -124.339669 
L 158.114698 -122.975523 
L 158.114731 -121.611376 
L 158.114786 -120.24723 
L 158.114873 -118.883083 
L 158.11501 -117.518936 
L 158.115222 -116.15479 
L 158.115544 -114.790643 
L 158.116026 -113.426497 
L 158.116734 -112.06235 
L 158.11776 -110.698204 
L 158.119219 -109.334057 
L 158.121262 -107.969911 
L 158.124075 -106.605764 
L 158.127886 -105.241617 
L 158.132965 -103.877471 
L 158.139626 -102.513324 
L 158.148221 -101.149178 
L 158.159135 -99.785031 
L 158.172777 -98.420885 
L 158.189564 -97.056738 
L 158.209903 -95.692592 
L 158.234178 -94.328445 
L 158.262723 -92.964299 
L 158.295815 -91.600152 
L 158.333653 -90.236005 
L 158.376361 -88.871859 
L 158.423991 -87.507712 
L 158.476542 -86.143566 
L 158.534004 -84.779419 
L 158.596404 -83.415273 
L 158.663891 -82.051126 
L 158.736829 -80.68698 
L 158.815917 -79.322833 
L 158.902323 -77.958686 
L 158.99783 -76.59454 
L 159.104978 -75.230393 
L 159.227194 -73.866247 
L 159.368876 -72.5021 
L 159.535424 -71.137954 
L 159.733169 -69.773807 
L 159.969189 -68.409661 
L 160.250979 -67.045514 
L 160.585965 -65.681368 
L 160.980865 -64.317221 
L 161.440919 -62.953074 
L 161.969032 -61.588928 
L 162.564905 -60.224781 
L 163.224246 -58.860635 
L 163.938161 -57.496488 
L 164.692826 -56.132342 
L 165.469542 -54.768195 
L 166.245231 -53.404049 
L 166.993385 -52.039902 
L 167.685446 -50.675755 
L 168.292528 -49.311609 
L 168.787345 -47.947462 
L 169.146161 -46.583316 
L 169.35059 -45.219169 
L 169.389044 -43.855023 
z
" style="stroke: #3d3d3d; stroke-width: 0.5"/>
    </defs>
    <g clip-path="url(#p60e272a5dd)">
     <use xlink:href="#m65a42959f2" x="0" y="240.48" style="fill: #9372b2; stroke: #3d3d3d; stroke-width: 0.5"/>
    </g>
   </g>
   <g id="PolyCollection_7">
    <defs>
     <path id="m485acaf21a" d="M 208.704883 -53.963504 
L 207.814979 -53.963504 
L 207.728185 -54.178512 
L 207.630421 -54.39352 
L 207.518893 -54.608527 
L 207.390664 -54.823535 
L 207.242838 -55.038543 
L 207.072757 -55.253551 
L 206.878209 -55.468559 
L 206.657617 -55.683567 
L 206.410207 -55.898575 
L 206.136122 -56.113583 
L 205.836489 -56.328591 
L 205.51341 -56.543598 
L 205.169894 -56.758606 
L 204.809708 -56.973614 
L 204.437176 -57.188622 
L 204.056922 -57.40363 
L 203.673584 -57.618638 
L 203.291512 -57.833646 
L 202.914475 -58.048654 
L 202.545406 -58.263662 
L 202.186199 -58.478669 
L 201.83759 -58.693677 
L 201.499126 -58.908685 
L 201.16925 -59.123693 
L 200.845485 -59.338701 
L 200.524726 -59.553709 
L 200.203623 -59.768717 
L 199.879018 -59.983725 
L 199.548428 -60.198733 
L 199.210505 -60.41374 
L 198.865463 -60.628748 
L 198.5154 -60.843756 
L 198.164497 -61.058764 
L 197.819061 -61.273772 
L 197.487382 -61.48878 
L 197.179412 -61.703788 
L 196.906269 -61.918796 
L 196.679602 -62.133804 
L 196.510859 -62.348811 
L 196.410503 -62.563819 
L 196.387261 -62.778827 
L 196.447444 -62.993835 
L 196.594426 -63.208843 
L 196.828305 -63.423851 
L 197.145796 -63.638859 
L 197.540353 -63.853867 
L 198.002531 -64.068875 
L 198.520527 -64.283882 
L 199.080882 -64.49889 
L 199.669264 -64.713898 
L 200.27127 -64.928906 
L 200.873187 -65.143914 
L 201.462648 -65.358922 
L 202.029148 -65.57393 
L 202.564382 -65.788938 
L 203.062413 -66.003946 
L 203.519661 -66.218953 
L 203.934748 -66.433961 
L 204.308229 -66.648969 
L 204.642246 -66.863977 
L 204.940142 -67.078985 
L 205.206071 -67.293993 
L 205.444632 -67.509001 
L 205.660538 -67.724009 
L 205.858349 -67.939017 
L 206.042255 -68.154024 
L 206.215915 -68.369032 
L 206.382353 -68.58404 
L 206.543894 -68.799048 
L 206.70215 -69.014056 
L 206.858033 -69.229064 
L 207.011804 -69.444072 
L 207.163143 -69.65908 
L 207.311248 -69.874088 
L 207.454943 -70.089095 
L 207.592797 -70.304103 
L 207.723248 -70.519111 
L 207.844721 -70.734119 
L 207.955735 -70.949127 
L 208.054997 -71.164135 
L 208.14147 -71.379143 
L 208.214429 -71.594151 
L 208.273491 -71.809159 
L 208.318629 -72.024167 
L 208.35017 -72.239174 
L 208.368783 -72.454182 
L 208.375454 -72.66919 
L 208.371464 -72.884198 
L 208.358347 -73.099206 
L 208.33785 -73.314214 
L 208.311887 -73.529222 
L 208.282479 -73.74423 
L 208.251687 -73.959238 
L 208.22154 -74.174245 
L 208.193956 -74.389253 
L 208.170663 -74.604261 
L 208.15312 -74.819269 
L 208.142456 -75.034277 
L 208.139419 -75.249285 
L 208.704883 -75.249285 
L 208.704883 -75.249285 
L 208.704883 -75.034277 
L 208.704883 -74.819269 
L 208.704883 -74.604261 
L 208.704883 -74.389253 
L 208.704883 -74.174245 
L 208.704883 -73.959238 
L 208.704883 -73.74423 
L 208.704883 -73.529222 
L 208.704883 -73.314214 
L 208.704883 -73.099206 
L 208.704883 -72.884198 
L 208.704883 -72.66919 
L 208.704883 -72.454182 
L 208.704883 -72.239174 
L 208.704883 -72.024167 
L 208.704883 -71.809159 
L 208.704883 -71.594151 
L 208.704883 -71.379143 
L 208.704883 -71.164135 
L 208.704883 -70.949127 
L 208.704883 -70.734119 
L 208.704883 -70.519111 
L 208.704883 -70.304103 
L 208.704883 -70.089095 
L 208.704883 -69.874088 
L 208.704883 -69.65908 
L 208.704883 -69.444072 
L 208.704883 -69.229064 
L 208.704883 -69.014056 
L 208.704883 -68.799048 
L 208.704883 -68.58404 
L 208.704883 -68.369032 
L 208.704883 -68.154024 
L 208.704883 -67.939017 
L 208.704883 -67.724009 
L 208.704883 -67.509001 
L 208.704883 -67.293993 
L 208.704883 -67.078985 
L 208.704883 -66.863977 
L 208.704883 -66.648969 
L 208.704883 -66.433961 
L 208.704883 -66.218953 
L 208.704883 -66.003946 
L 208.704883 -65.788938 
L 208.704883 -65.57393 
L 208.704883 -65.358922 
L 208.704883 -65.143914 
L 208.704883 -64.928906 
L 208.704883 -64.713898 
L 208.704883 -64.49889 
L 208.704883 -64.283882 
L 208.704883 -64.068875 
L 208.704883 -63.853867 
L 208.704883 -63.638859 
L 208.704883 -63.423851 
L 208.704883 -63.208843 
L 208.704883 -62.993835 
L 208.704883 -62.778827 
L 208.704883 -62.563819 
L 208.704883 -62.348811 
L 208.704883 -62.133804 
L 208.704883 -61.918796 
L 208.704883 -61.703788 
L 208.704883 -61.48878 
L 208.704883 -61.273772 
L 208.704883 -61.058764 
L 208.704883 -60.843756 
L 208.704883 -60.628748 
L 208.704883 -60.41374 
L 208.704883 -60.198733 
L 208.704883 -59.983725 
L 208.704883 -59.768717 
L 208.704883 -59.553709 
L 208.704883 -59.338701 
L 208.704883 -59.123693 
L 208.704883 -58.908685 
L 208.704883 -58.693677 
L 208.704883 -58.478669 
L 208.704883 -58.263662 
L 208.704883 -58.048654 
L 208.704883 -57.833646 
L 208.704883 -57.618638 
L 208.704883 -57.40363 
L 208.704883 -57.188622 
L 208.704883 -56.973614 
L 208.704883 -56.758606 
L 208.704883 -56.543598 
L 208.704883 -56.328591 
L 208.704883 -56.113583 
L 208.704883 -55.898575 
L 208.704883 -55.683567 
L 208.704883 -55.468559 
L 208.704883 -55.253551 
L 208.704883 -55.038543 
L 208.704883 -54.823535 
L 208.704883 -54.608527 
L 208.704883 -54.39352 
L 208.704883 -54.178512 
L 208.704883 -53.963504 
z
" style="stroke: #3d3d3d; stroke-width: 0.5"/>
    </defs>
    <g clip-path="url(#p60e272a5dd)">
     <use xlink:href="#m485acaf21a" x="0" y="240.48" style="fill: #666666; stroke: #3d3d3d; stroke-width: 0.5"/>
    </g>
   </g>
   <g id="PolyCollection_8">
    <defs>
     <path id="m6af842d6e3" d="M 211.529679 -48.674977 
L 208.704883 -48.674977 
L 208.704883 -48.856717 
L 208.704883 -49.038456 
L 208.704883 -49.220196 
L 208.704883 -49.401936 
L 208.704883 -49.583675 
L 208.704883 -49.765415 
L 208.704883 -49.947155 
L 208.704883 -50.128894 
L 208.704883 -50.310634 
L 208.704883 -50.492374 
L 208.704883 -50.674114 
L 208.704883 -50.855853 
L 208.704883 -51.037593 
L 208.704883 -51.219333 
L 208.704883 -51.401072 
L 208.704883 -51.582812 
L 208.704883 -51.764552 
L 208.704883 -51.946291 
L 208.704883 -52.128031 
L 208.704883 -52.309771 
L 208.704883 -52.491511 
L 208.704883 -52.67325 
L 208.704883 -52.85499 
L 208.704883 -53.03673 
L 208.704883 -53.218469 
L 208.704883 -53.400209 
L 208.704883 -53.581949 
L 208.704883 -53.763688 
L 208.704883 -53.945428 
L 208.704883 -54.127168 
L 208.704883 -54.308907 
L 208.704883 -54.490647 
L 208.704883 -54.672387 
L 208.704883 -54.854127 
L 208.704883 -55.035866 
L 208.704883 -55.217606 
L 208.704883 -55.399346 
L 208.704883 -55.581085 
L 208.704883 -55.762825 
L 208.704883 -55.944565 
L 208.704883 -56.126304 
L 208.704883 -56.308044 
L 208.704883 -56.489784 
L 208.704883 -56.671523 
L 208.704883 -56.853263 
L 208.704883 -57.035003 
L 208.704883 -57.216743 
L 208.704883 -57.398482 
L 208.704883 -57.580222 
L 208.704883 -57.761962 
L 208.704883 -57.943701 
L 208.704883 -58.125441 
L 208.704883 -58.307181 
L 208.704883 -58.48892 
L 208.704883 -58.67066 
L 208.704883 -58.8524 
L 208.704883 -59.03414 
L 208.704883 -59.215879 
L 208.704883 -59.397619 
L 208.704883 -59.579359 
L 208.704883 -59.761098 
L 208.704883 -59.942838 
L 208.704883 -60.124578 
L 208.704883 -60.306317 
L 208.704883 -60.488057 
L 208.704883 -60.669797 
L 208.704883 -60.851536 
L 208.704883 -61.033276 
L 208.704883 -61.215016 
L 208.704883 -61.396756 
L 208.704883 -61.578495 
L 208.704883 -61.760235 
L 208.704883 -61.941975 
L 208.704883 -62.123714 
L 208.704883 -62.305454 
L 208.704883 -62.487194 
L 208.704883 -62.668933 
L 208.704883 -62.850673 
L 208.704883 -63.032413 
L 208.704883 -63.214152 
L 208.704883 -63.395892 
L 208.704883 -63.577632 
L 208.704883 -63.759372 
L 208.704883 -63.941111 
L 208.704883 -64.122851 
L 208.704883 -64.304591 
L 208.704883 -64.48633 
L 208.704883 -64.66807 
L 208.704883 -64.84981 
L 208.704883 -65.031549 
L 208.704883 -65.213289 
L 208.704883 -65.395029 
L 208.704883 -65.576769 
L 208.704883 -65.758508 
L 208.704883 -65.940248 
L 208.704883 -66.121988 
L 208.704883 -66.303727 
L 208.704883 -66.485467 
L 208.704883 -66.667207 
L 209.129744 -66.667207 
L 209.129744 -66.667207 
L 209.1253 -66.485467 
L 209.112242 -66.303727 
L 209.091375 -66.121988 
L 209.063945 -65.940248 
L 209.031518 -65.758508 
L 208.995835 -65.576769 
L 208.958656 -65.395029 
L 208.921621 -65.213289 
L 208.886138 -65.031549 
L 208.853309 -64.84981 
L 208.823896 -64.66807 
L 208.798325 -64.48633 
L 208.776722 -64.304591 
L 208.758963 -64.122851 
L 208.744747 -63.941111 
L 208.733657 -63.759372 
L 208.725219 -63.577632 
L 208.718957 -63.395892 
L 208.71442 -63.214152 
L 208.711211 -63.032413 
L 208.708995 -62.850673 
L 208.707499 -62.668933 
L 208.706513 -62.487194 
L 208.705877 -62.305454 
L 208.705477 -62.123714 
L 208.705231 -61.941975 
L 208.705083 -61.760235 
L 208.704998 -61.578495 
L 208.704951 -61.396756 
L 208.70493 -61.215016 
L 208.704928 -61.033276 
L 208.704944 -60.851536 
L 208.704985 -60.669797 
L 208.705063 -60.488057 
L 208.705202 -60.306317 
L 208.705442 -60.124578 
L 208.705842 -59.942838 
L 208.706496 -59.761098 
L 208.707542 -59.579359 
L 208.709179 -59.397619 
L 208.711682 -59.215879 
L 208.715428 -59.03414 
L 208.720912 -58.8524 
L 208.728766 -58.67066 
L 208.739769 -58.48892 
L 208.754852 -58.307181 
L 208.775082 -58.125441 
L 208.801641 -57.943701 
L 208.835784 -57.761962 
L 208.878786 -57.580222 
L 208.931895 -57.398482 
L 208.996288 -57.216743 
L 209.073055 -57.035003 
L 209.163234 -56.853263 
L 209.267893 -56.671523 
L 209.388283 -56.489784 
L 209.526052 -56.308044 
L 209.68349 -56.126304 
L 209.863791 -55.944565 
L 210.071254 -55.762825 
L 210.311389 -55.581085 
L 210.590844 -55.399346 
L 210.917118 -55.217606 
L 211.298025 -55.035866 
L 211.740917 -54.854127 
L 212.251708 -54.672387 
L 212.833795 -54.490647 
L 213.486996 -54.308907 
L 214.206639 -54.127168 
L 214.982968 -53.945428 
L 215.800969 -53.763688 
L 216.640708 -53.581949 
L 217.478192 -53.400209 
L 218.28671 -53.218469 
L 219.038533 -53.03673 
L 219.7068 -52.85499 
L 220.2674 -52.67325 
L 220.700641 -52.491511 
L 220.992543 -52.309771 
L 221.135626 -52.128031 
L 221.129139 -51.946291 
L 220.978743 -51.764552 
L 220.695722 -51.582812 
L 220.295831 -51.401072 
L 219.79794 -51.219333 
L 219.222606 -51.037593 
L 218.590718 -50.855853 
L 217.922305 -50.674114 
L 217.235602 -50.492374 
L 216.546388 -50.310634 
L 215.867624 -50.128894 
L 215.209349 -49.947155 
L 214.578819 -49.765415 
L 213.980813 -49.583675 
L 213.418069 -49.401936 
L 212.891763 -49.220196 
L 212.401999 -49.038456 
L 211.948245 -48.856717 
L 211.529679 -48.674977 
z
" style="stroke: #3d3d3d; stroke-width: 0.5"/>
    </defs>
    <g clip-path="url(#p60e272a5dd)">
     <use xlink:href="#m6af842d6e3" x="0" y="240.48" style="fill: #9372b2; stroke: #3d3d3d; stroke-width: 0.5"/>
    </g>
   </g>
   <g id="patch_3">
    <path d="M 56.93418 196.624977 
L 56.93418 196.624977 
L 56.93418 196.624977 
L 56.93418 196.624977 
z
" clip-path="url(#p60e272a5dd)" style="fill: #666666; stroke: #3d3d3d; stroke-width: 0.5; stroke-linejoin: miter"/>
   </g>
   <g id="patch_4">
    <path d="M 56.93418 196.624977 
L 56.93418 196.624977 
L 56.93418 196.624977 
L 56.93418 196.624977 
z
" clip-path="url(#p60e272a5dd)" style="fill: #9372b2; stroke: #3d3d3d; stroke-width: 0.5; stroke-linejoin: miter"/>
   </g>
   <g id="patch_5">
    <path d="M 31.639063 205.6795 
L 31.639063 6.48 
" style="fill: none; stroke: #000000; stroke-width: 0.75; stroke-linejoin: miter; stroke-linecap: square"/>
   </g>
   <g id="patch_6">
    <path d="M 234 205.6795 
L 234 6.48 
" style="fill: none; stroke: #000000; stroke-width: 0.75; stroke-linejoin: miter; stroke-linecap: square"/>
   </g>
   <g id="patch_7">
    <path d="M 31.639062 205.6795 
L 234 205.6795 
" style="fill: none; stroke: #000000; stroke-width: 0.75; stroke-linejoin: miter; stroke-linecap: square"/>
   </g>
   <g id="patch_8">
    <path d="M 31.639062 6.48 
L 234 6.48 
" style="fill: none; stroke: #000000; stroke-width: 0.75; stroke-linejoin: miter; stroke-linecap: square"/>
   </g>
   <g id="legend_1">
    <g id="patch_9">
     <path d="M 178.922812 36.741563 
L 229.8 36.741563 
Q 231 36.741563 231 35.541563 
L 231 10.68 
Q 231 9.48 229.8 9.48 
L 178.922812 9.48 
Q 177.722812 9.48 177.722812 10.68 
L 177.722812 35.541563 
Q 177.722812 36.741563 178.922812 36.741563 
z
" style="fill: #ffffff; opacity: 0.8; stroke: #ffffff; stroke-linejoin: miter"/>
    </g>
    <g id="text_12">
     <!-- Genome -->
     <g transform="translate(192.855937 16.174688) scale(0.06 -0.06)">
      <use xlink:href="#ArialMT-47"/>
      <use xlink:href="#ArialMT-65" x="77.783203"/>
      <use xlink:href="#ArialMT-6e" x="133.398438"/>
      <use xlink:href="#ArialMT-6f" x="189.013672"/>
      <use xlink:href="#ArialMT-6d" x="244.628906"/>
      <use xlink:href="#ArialMT-65" x="327.929688"/>
     </g>
    </g>
    <g id="patch_10">
     <path d="M 180.122812 24.661875 
L 192.122812 24.661875 
L 192.122812 20.461875 
L 180.122812 20.461875 
z
" style="fill: #666666; stroke: #3d3d3d; stroke-width: 0.5; stroke-linejoin: miter"/>
    </g>
    <g id="text_13">
     <!-- GRCh38 -->
     <g transform="translate(196.922812 24.661875) scale(0.06 -0.06)">
      <defs>
       <path id="ArialMT-33" d="M 269 1209 
L 831 1284 
Q 928 806 1161 595 
Q 1394 384 1728 384 
Q 2125 384 2398 659 
Q 2672 934 2672 1341 
Q 2672 1728 2419 1979 
Q 2166 2231 1775 2231 
Q 1616 2231 1378 2169 
L 1441 2663 
Q 1497 2656 1531 2656 
Q 1891 2656 2178 2843 
Q 2466 3031 2466 3422 
Q 2466 3731 2256 3934 
Q 2047 4138 1716 4138 
Q 1388 4138 1169 3931 
Q 950 3725 888 3313 
L 325 3413 
Q 428 3978 793 4289 
Q 1159 4600 1703 4600 
Q 2078 4600 2393 4439 
Q 2709 4278 2876 4000 
Q 3044 3722 3044 3409 
Q 3044 3113 2884 2869 
Q 2725 2625 2413 2481 
Q 2819 2388 3044 2092 
Q 3269 1797 3269 1353 
Q 3269 753 2831 336 
Q 2394 -81 1725 -81 
Q 1122 -81 723 278 
Q 325 638 269 1209 
z
" transform="scale(0.015625)"/>
      </defs>
      <use xlink:href="#ArialMT-47"/>
      <use xlink:href="#ArialMT-52" x="77.783203"/>
      <use xlink:href="#ArialMT-43" x="150"/>
      <use xlink:href="#ArialMT-68" x="222.216797"/>
      <use xlink:href="#ArialMT-33" x="277.832031"/>
      <use xlink:href="#ArialMT-38" x="333.447266"/>
     </g>
    </g>
    <g id="patch_11">
     <path d="M 180.122812 33.149063 
L 192.122812 33.149063 
L 192.122812 28.949063 
L 180.122812 28.949063 
z
" style="fill: #9372b2; stroke: #3d3d3d; stroke-width: 0.5; stroke-linejoin: miter"/>
    </g>
    <g id="text_14">
     <!-- CHM13v2.0 -->
     <g transform="translate(196.922812 33.149063) scale(0.06 -0.06)">
      <defs>
       <path id="ArialMT-48" d="M 513 0 
L 513 4581 
L 1119 4581 
L 1119 2700 
L 3500 2700 
L 3500 4581 
L 4106 4581 
L 4106 0 
L 3500 0 
L 3500 2159 
L 1119 2159 
L 1119 0 
L 513 0 
z
" transform="scale(0.015625)"/>
       <path id="ArialMT-4d" d="M 475 0 
L 475 4581 
L 1388 4581 
L 2472 1338 
Q 2622 884 2691 659 
Q 2769 909 2934 1394 
L 4031 4581 
L 4847 4581 
L 4847 0 
L 4263 0 
L 4263 3834 
L 2931 0 
L 2384 0 
L 1059 3900 
L 1059 0 
L 475 0 
z
" transform="scale(0.015625)"/>
       <path id="ArialMT-76" d="M 1344 0 
L 81 3319 
L 675 3319 
L 1388 1331 
Q 1503 1009 1600 663 
Q 1675 925 1809 1294 
L 2547 3319 
L 3125 3319 
L 1869 0 
L 1344 0 
z
" transform="scale(0.015625)"/>
       <path id="ArialMT-2e" d="M 581 0 
L 581 641 
L 1222 641 
L 1222 0 
L 581 0 
z
" transform="scale(0.015625)"/>
      </defs>
      <use xlink:href="#ArialMT-43"/>
      <use xlink:href="#ArialMT-48" x="72.216797"/>
      <use xlink:href="#ArialMT-4d" x="144.433594"/>
      <use xlink:href="#ArialMT-31" x="227.734375"/>
      <use xlink:href="#ArialMT-33" x="283.349609"/>
      <use xlink:href="#ArialMT-76" x="338.964844"/>
      <use xlink:href="#ArialMT-32" x="388.964844"/>
      <use xlink:href="#ArialMT-2e" x="444.580078"/>
      <use xlink:href="#ArialMT-30" x="472.363281"/>
     </g>
    </g>
   </g>
  </g>
 </g>
 <defs>
  <clipPath id="p60e272a5dd">
   <rect x="31.639063" y="6.48" width="202.360937" height="199.1995"/>
  </clipPath>
 </defs>
</svg>
