<?xml version="1.0" encoding="utf-8" standalone="no"?>
<!DOCTYPE svg PUBLIC "-//W3C//DTD SVG 1.1//EN"
  "http://www.w3.org/Graphics/SVG/1.1/DTD/svg11.dtd">
<svg xmlns:xlink="http://www.w3.org/1999/xlink" width="509.76pt" height="108pt" viewBox="0 0 509.76 108" xmlns="http://www.w3.org/2000/svg" version="1.1">
 <metadata>
  <rdf:RDF xmlns:dc="http://purl.org/dc/elements/1.1/" xmlns:cc="http://creativecommons.org/ns#" xmlns:rdf="http://www.w3.org/1999/02/22-rdf-syntax-ns#">
   <cc:Work>
    <dc:type rdf:resource="http://purl.org/dc/dcmitype/StillImage"/>
    <dc:date>2025-09-11T20:09:05.768524</dc:date>
    <dc:format>image/svg+xml</dc:format>
    <dc:creator>
     <cc:Agent>
      <dc:title>Matplotlib v3.9.2, https://matplotlib.org/</dc:title>
     </cc:Agent>
    </dc:creator>
   </cc:Work>
  </rdf:RDF>
 </metadata>
 <defs>
  <style type="text/css">*{stroke-linejoin: round; stroke-linecap: butt}</style>
 </defs>
 <g id="figure_1">
  <g id="patch_1">
   <path d="M 0 108 
L 509.76 108 
L 509.76 0 
L 0 0 
z
" style="fill: #ffffff"/>
  </g>
  <g id="axes_1">
   <g id="patch_2">
    <path d="M 39.979062 73.1995 
L 503.28 73.1995 
L 503.28 6.48 
L 39.979062 6.48 
z
" style="fill: #ffffff"/>
   </g>
   <g id="matplotlib.axis_1">
    <g id="xtick_1">
     <g id="line2d_1">
      <defs>
       <path id="m58c69fa5f4" d="M 0 0 
L 0 3.5 
" style="stroke: #000000; stroke-width: 0.8"/>
      </defs>
      <g>
       <use xlink:href="#m58c69fa5f4" x="49.631165" y="73.1995" style="stroke: #000000; stroke-width: 0.8"/>
      </g>
     </g>
     <g id="text_1">
      <!-- Whole -->
      <g transform="translate(41.12804 84.494188) scale(0.06 -0.06)">
       <defs>
        <path id="ArialMT-57" d="M 1294 0 
L 78 4581 
L 700 4581 
L 1397 1578 
Q 1509 1106 1591 641 
Q 1766 1375 1797 1488 
L 2669 4581 
L 3400 4581 
L 4056 2263 
Q 4303 1400 4413 641 
Q 4500 1075 4641 1638 
L 5359 4581 
L 5969 4581 
L 4713 0 
L 4128 0 
L 3163 3491 
Q 3041 3928 3019 4028 
Q 2947 3713 2884 3491 
L 1913 0 
L 1294 0 
z
" transform="scale(0.015625)"/>
        <path id="ArialMT-68" d="M 422 0 
L 422 4581 
L 984 4581 
L 984 2938 
Q 1378 3394 1978 3394 
Q 2347 3394 2619 3248 
Q 2891 3103 3008 2847 
Q 3125 2591 3125 2103 
L 3125 0 
L 2563 0 
L 2563 2103 
Q 2563 2525 2380 2717 
Q 2197 2909 1863 2909 
Q 1613 2909 1392 2779 
Q 1172 2650 1078 2428 
Q 984 2206 984 1816 
L 984 0 
L 422 0 
z
" transform="scale(0.015625)"/>
        <path id="ArialMT-6f" d="M 213 1659 
Q 213 2581 725 3025 
Q 1153 3394 1769 3394 
Q 2453 3394 2887 2945 
Q 3322 2497 3322 1706 
Q 3322 1066 3130 698 
Q 2938 331 2570 128 
Q 2203 -75 1769 -75 
Q 1072 -75 642 372 
Q 213 819 213 1659 
z
M 791 1659 
Q 791 1022 1069 705 
Q 1347 388 1769 388 
Q 2188 388 2466 706 
Q 2744 1025 2744 1678 
Q 2744 2294 2464 2611 
Q 2184 2928 1769 2928 
Q 1347 2928 1069 2612 
Q 791 2297 791 1659 
z
" transform="scale(0.015625)"/>
        <path id="ArialMT-6c" d="M 409 0 
L 409 4581 
L 972 4581 
L 972 0 
L 409 0 
z
" transform="scale(0.015625)"/>
        <path id="ArialMT-65" d="M 2694 1069 
L 3275 997 
Q 3138 488 2766 206 
Q 2394 -75 1816 -75 
Q 1088 -75 661 373 
Q 234 822 234 1631 
Q 234 2469 665 2931 
Q 1097 3394 1784 3394 
Q 2450 3394 2872 2941 
Q 3294 2488 3294 1666 
Q 3294 1616 3291 1516 
L 816 1516 
Q 847 969 1125 678 
Q 1403 388 1819 388 
Q 2128 388 2347 550 
Q 2566 713 2694 1069 
z
M 847 1978 
L 2700 1978 
Q 2663 2397 2488 2606 
Q 2219 2931 1791 2931 
Q 1403 2931 1139 2672 
Q 875 2413 847 1978 
z
" transform="scale(0.015625)"/>
       </defs>
       <use xlink:href="#ArialMT-57"/>
       <use xlink:href="#ArialMT-68" x="94.384766"/>
       <use xlink:href="#ArialMT-6f" x="150"/>
       <use xlink:href="#ArialMT-6c" x="205.615234"/>
       <use xlink:href="#ArialMT-65" x="227.832031"/>
      </g>
      <!-- Genome -->
      <g transform="translate(38.125697 90.840312) scale(0.06 -0.06)">
       <defs>
        <path id="ArialMT-47" d="M 2638 1797 
L 2638 2334 
L 4578 2338 
L 4578 638 
Q 4131 281 3656 101 
Q 3181 -78 2681 -78 
Q 2006 -78 1454 211 
Q 903 500 622 1047 
Q 341 1594 341 2269 
Q 341 2938 620 3517 
Q 900 4097 1425 4378 
Q 1950 4659 2634 4659 
Q 3131 4659 3532 4498 
Q 3934 4338 4162 4050 
Q 4391 3763 4509 3300 
L 3963 3150 
Q 3859 3500 3706 3700 
Q 3553 3900 3268 4020 
Q 2984 4141 2638 4141 
Q 2222 4141 1919 4014 
Q 1616 3888 1430 3681 
Q 1244 3475 1141 3228 
Q 966 2803 966 2306 
Q 966 1694 1177 1281 
Q 1388 869 1791 669 
Q 2194 469 2647 469 
Q 3041 469 3416 620 
Q 3791 772 3984 944 
L 3984 1797 
L 2638 1797 
z
" transform="scale(0.015625)"/>
        <path id="ArialMT-6e" d="M 422 0 
L 422 3319 
L 928 3319 
L 928 2847 
Q 1294 3394 1984 3394 
Q 2284 3394 2536 3286 
Q 2788 3178 2913 3003 
Q 3038 2828 3088 2588 
Q 3119 2431 3119 2041 
L 3119 0 
L 2556 0 
L 2556 2019 
Q 2556 2363 2490 2533 
Q 2425 2703 2258 2804 
Q 2091 2906 1866 2906 
Q 1506 2906 1245 2678 
Q 984 2450 984 1813 
L 984 0 
L 422 0 
z
" transform="scale(0.015625)"/>
        <path id="ArialMT-6d" d="M 422 0 
L 422 3319 
L 925 3319 
L 925 2853 
Q 1081 3097 1340 3245 
Q 1600 3394 1931 3394 
Q 2300 3394 2536 3241 
Q 2772 3088 2869 2813 
Q 3263 3394 3894 3394 
Q 4388 3394 4653 3120 
Q 4919 2847 4919 2278 
L 4919 0 
L 4359 0 
L 4359 2091 
Q 4359 2428 4304 2576 
Q 4250 2725 4106 2815 
Q 3963 2906 3769 2906 
Q 3419 2906 3187 2673 
Q 2956 2441 2956 1928 
L 2956 0 
L 2394 0 
L 2394 2156 
Q 2394 2531 2256 2718 
Q 2119 2906 1806 2906 
Q 1569 2906 1367 2781 
Q 1166 2656 1075 2415 
Q 984 2175 984 1722 
L 984 0 
L 422 0 
z
" transform="scale(0.015625)"/>
       </defs>
       <use xlink:href="#ArialMT-47"/>
       <use xlink:href="#ArialMT-65" x="77.783203"/>
       <use xlink:href="#ArialMT-6e" x="133.398438"/>
       <use xlink:href="#ArialMT-6f" x="189.013672"/>
       <use xlink:href="#ArialMT-6d" x="244.628906"/>
       <use xlink:href="#ArialMT-65" x="327.929688"/>
      </g>
     </g>
    </g>
    <g id="xtick_2">
     <g id="line2d_2">
      <g>
       <use xlink:href="#m58c69fa5f4" x="68.935371" y="73.1995" style="stroke: #000000; stroke-width: 0.8"/>
      </g>
     </g>
     <g id="text_2">
      <!-- chr1 -->
      <g transform="translate(63.099902 84.494188) scale(0.06 -0.06)">
       <defs>
        <path id="ArialMT-63" d="M 2588 1216 
L 3141 1144 
Q 3050 572 2676 248 
Q 2303 -75 1759 -75 
Q 1078 -75 664 370 
Q 250 816 250 1647 
Q 250 2184 428 2587 
Q 606 2991 970 3192 
Q 1334 3394 1763 3394 
Q 2303 3394 2647 3120 
Q 2991 2847 3088 2344 
L 2541 2259 
Q 2463 2594 2264 2762 
Q 2066 2931 1784 2931 
Q 1359 2931 1093 2626 
Q 828 2322 828 1663 
Q 828 994 1084 691 
Q 1341 388 1753 388 
Q 2084 388 2306 591 
Q 2528 794 2588 1216 
z
" transform="scale(0.015625)"/>
        <path id="ArialMT-72" d="M 416 0 
L 416 3319 
L 922 3319 
L 922 2816 
Q 1116 3169 1280 3281 
Q 1444 3394 1641 3394 
Q 1925 3394 2219 3213 
L 2025 2691 
Q 1819 2813 1613 2813 
Q 1428 2813 1281 2702 
Q 1134 2591 1072 2394 
Q 978 2094 978 1738 
L 978 0 
L 416 0 
z
" transform="scale(0.015625)"/>
        <path id="ArialMT-31" d="M 2384 0 
L 1822 0 
L 1822 3584 
Q 1619 3391 1289 3197 
Q 959 3003 697 2906 
L 697 3450 
Q 1169 3672 1522 3987 
Q 1875 4303 2022 4600 
L 2384 4600 
L 2384 0 
z
" transform="scale(0.015625)"/>
       </defs>
       <use xlink:href="#ArialMT-63"/>
       <use xlink:href="#ArialMT-68" x="50"/>
       <use xlink:href="#ArialMT-72" x="105.615234"/>
       <use xlink:href="#ArialMT-31" x="138.916016"/>
      </g>
     </g>
    </g>
    <g id="xtick_3">
     <g id="line2d_3">
      <g>
       <use xlink:href="#m58c69fa5f4" x="88.239577" y="73.1995" style="stroke: #000000; stroke-width: 0.8"/>
      </g>
     </g>
     <g id="text_3">
      <!-- chr2 -->
      <g transform="translate(82.404108 84.494188) scale(0.06 -0.06)">
       <defs>
        <path id="ArialMT-32" d="M 3222 541 
L 3222 0 
L 194 0 
Q 188 203 259 391 
Q 375 700 629 1000 
Q 884 1300 1366 1694 
Q 2113 2306 2375 2664 
Q 2638 3022 2638 3341 
Q 2638 3675 2398 3904 
Q 2159 4134 1775 4134 
Q 1369 4134 1125 3890 
Q 881 3647 878 3216 
L 300 3275 
Q 359 3922 746 4261 
Q 1134 4600 1788 4600 
Q 2447 4600 2831 4234 
Q 3216 3869 3216 3328 
Q 3216 3053 3103 2787 
Q 2991 2522 2730 2228 
Q 2469 1934 1863 1422 
Q 1356 997 1212 845 
Q 1069 694 975 541 
L 3222 541 
z
" transform="scale(0.015625)"/>
       </defs>
       <use xlink:href="#ArialMT-63"/>
       <use xlink:href="#ArialMT-68" x="50"/>
       <use xlink:href="#ArialMT-72" x="105.615234"/>
       <use xlink:href="#ArialMT-32" x="138.916016"/>
      </g>
     </g>
    </g>
    <g id="xtick_4">
     <g id="line2d_4">
      <g>
       <use xlink:href="#m58c69fa5f4" x="107.543783" y="73.1995" style="stroke: #000000; stroke-width: 0.8"/>
      </g>
     </g>
     <g id="text_4">
      <!-- chr3 -->
      <g transform="translate(101.708314 84.494188) scale(0.06 -0.06)">
       <defs>
        <path id="ArialMT-33" d="M 269 1209 
L 831 1284 
Q 928 806 1161 595 
Q 1394 384 1728 384 
Q 2125 384 2398 659 
Q 2672 934 2672 1341 
Q 2672 1728 2419 1979 
Q 2166 2231 1775 2231 
Q 1616 2231 1378 2169 
L 1441 2663 
Q 1497 2656 1531 2656 
Q 1891 2656 2178 2843 
Q 2466 3031 2466 3422 
Q 2466 3731 2256 3934 
Q 2047 4138 1716 4138 
Q 1388 4138 1169 3931 
Q 950 3725 888 3313 
L 325 3413 
Q 428 3978 793 4289 
Q 1159 4600 1703 4600 
Q 2078 4600 2393 4439 
Q 2709 4278 2876 4000 
Q 3044 3722 3044 3409 
Q 3044 3113 2884 2869 
Q 2725 2625 2413 2481 
Q 2819 2388 3044 2092 
Q 3269 1797 3269 1353 
Q 3269 753 2831 336 
Q 2394 -81 1725 -81 
Q 1122 -81 723 278 
Q 325 638 269 1209 
z
" transform="scale(0.015625)"/>
       </defs>
       <use xlink:href="#ArialMT-63"/>
       <use xlink:href="#ArialMT-68" x="50"/>
       <use xlink:href="#ArialMT-72" x="105.615234"/>
       <use xlink:href="#ArialMT-33" x="138.916016"/>
      </g>
     </g>
    </g>
    <g id="xtick_5">
     <g id="line2d_5">
      <g>
       <use xlink:href="#m58c69fa5f4" x="126.847988" y="73.1995" style="stroke: #000000; stroke-width: 0.8"/>
      </g>
     </g>
     <g id="text_5">
      <!-- chr4 -->
      <g transform="translate(121.01252 84.494188) scale(0.06 -0.06)">
       <defs>
        <path id="ArialMT-34" d="M 2069 0 
L 2069 1097 
L 81 1097 
L 81 1613 
L 2172 4581 
L 2631 4581 
L 2631 1613 
L 3250 1613 
L 3250 1097 
L 2631 1097 
L 2631 0 
L 2069 0 
z
M 2069 1613 
L 2069 3678 
L 634 1613 
L 2069 1613 
z
" transform="scale(0.015625)"/>
       </defs>
       <use xlink:href="#ArialMT-63"/>
       <use xlink:href="#ArialMT-68" x="50"/>
       <use xlink:href="#ArialMT-72" x="105.615234"/>
       <use xlink:href="#ArialMT-34" x="138.916016"/>
      </g>
     </g>
    </g>
    <g id="xtick_6">
     <g id="line2d_6">
      <g>
       <use xlink:href="#m58c69fa5f4" x="146.152194" y="73.1995" style="stroke: #000000; stroke-width: 0.8"/>
      </g>
     </g>
     <g id="text_6">
      <!-- chr5 -->
      <g transform="translate(140.316725 84.494188) scale(0.06 -0.06)">
       <defs>
        <path id="ArialMT-35" d="M 266 1200 
L 856 1250 
Q 922 819 1161 601 
Q 1400 384 1738 384 
Q 2144 384 2425 690 
Q 2706 997 2706 1503 
Q 2706 1984 2436 2262 
Q 2166 2541 1728 2541 
Q 1456 2541 1237 2417 
Q 1019 2294 894 2097 
L 366 2166 
L 809 4519 
L 3088 4519 
L 3088 3981 
L 1259 3981 
L 1013 2750 
Q 1425 3038 1878 3038 
Q 2478 3038 2890 2622 
Q 3303 2206 3303 1553 
Q 3303 931 2941 478 
Q 2500 -78 1738 -78 
Q 1113 -78 717 272 
Q 322 622 266 1200 
z
" transform="scale(0.015625)"/>
       </defs>
       <use xlink:href="#ArialMT-63"/>
       <use xlink:href="#ArialMT-68" x="50"/>
       <use xlink:href="#ArialMT-72" x="105.615234"/>
       <use xlink:href="#ArialMT-35" x="138.916016"/>
      </g>
     </g>
    </g>
    <g id="xtick_7">
     <g id="line2d_7">
      <g>
       <use xlink:href="#m58c69fa5f4" x="165.4564" y="73.1995" style="stroke: #000000; stroke-width: 0.8"/>
      </g>
     </g>
     <g id="text_7">
      <!-- chr6 -->
      <g transform="translate(159.620931 84.494188) scale(0.06 -0.06)">
       <defs>
        <path id="ArialMT-36" d="M 3184 3459 
L 2625 3416 
Q 2550 3747 2413 3897 
Q 2184 4138 1850 4138 
Q 1581 4138 1378 3988 
Q 1113 3794 959 3422 
Q 806 3050 800 2363 
Q 1003 2672 1297 2822 
Q 1591 2972 1913 2972 
Q 2475 2972 2870 2558 
Q 3266 2144 3266 1488 
Q 3266 1056 3080 686 
Q 2894 316 2569 119 
Q 2244 -78 1831 -78 
Q 1128 -78 684 439 
Q 241 956 241 2144 
Q 241 3472 731 4075 
Q 1159 4600 1884 4600 
Q 2425 4600 2770 4297 
Q 3116 3994 3184 3459 
z
M 888 1484 
Q 888 1194 1011 928 
Q 1134 663 1356 523 
Q 1578 384 1822 384 
Q 2178 384 2434 671 
Q 2691 959 2691 1453 
Q 2691 1928 2437 2201 
Q 2184 2475 1800 2475 
Q 1419 2475 1153 2201 
Q 888 1928 888 1484 
z
" transform="scale(0.015625)"/>
       </defs>
       <use xlink:href="#ArialMT-63"/>
       <use xlink:href="#ArialMT-68" x="50"/>
       <use xlink:href="#ArialMT-72" x="105.615234"/>
       <use xlink:href="#ArialMT-36" x="138.916016"/>
      </g>
     </g>
    </g>
    <g id="xtick_8">
     <g id="line2d_8">
      <g>
       <use xlink:href="#m58c69fa5f4" x="184.760605" y="73.1995" style="stroke: #000000; stroke-width: 0.8"/>
      </g>
     </g>
     <g id="text_8">
      <!-- chr7 -->
      <g transform="translate(178.925137 84.494188) scale(0.06 -0.06)">
       <defs>
        <path id="ArialMT-37" d="M 303 3981 
L 303 4522 
L 3269 4522 
L 3269 4084 
Q 2831 3619 2401 2847 
Q 1972 2075 1738 1259 
Q 1569 684 1522 0 
L 944 0 
Q 953 541 1156 1306 
Q 1359 2072 1739 2783 
Q 2119 3494 2547 3981 
L 303 3981 
z
" transform="scale(0.015625)"/>
       </defs>
       <use xlink:href="#ArialMT-63"/>
       <use xlink:href="#ArialMT-68" x="50"/>
       <use xlink:href="#ArialMT-72" x="105.615234"/>
       <use xlink:href="#ArialMT-37" x="138.916016"/>
      </g>
     </g>
    </g>
    <g id="xtick_9">
     <g id="line2d_9">
      <g>
       <use xlink:href="#m58c69fa5f4" x="204.064811" y="73.1995" style="stroke: #000000; stroke-width: 0.8"/>
      </g>
     </g>
     <g id="text_9">
      <!-- chr8 -->
      <g transform="translate(198.229342 84.494188) scale(0.06 -0.06)">
       <defs>
        <path id="ArialMT-38" d="M 1131 2484 
Q 781 2613 612 2850 
Q 444 3088 444 3419 
Q 444 3919 803 4259 
Q 1163 4600 1759 4600 
Q 2359 4600 2725 4251 
Q 3091 3903 3091 3403 
Q 3091 3084 2923 2848 
Q 2756 2613 2416 2484 
Q 2838 2347 3058 2040 
Q 3278 1734 3278 1309 
Q 3278 722 2862 322 
Q 2447 -78 1769 -78 
Q 1091 -78 675 323 
Q 259 725 259 1325 
Q 259 1772 486 2073 
Q 713 2375 1131 2484 
z
M 1019 3438 
Q 1019 3113 1228 2906 
Q 1438 2700 1772 2700 
Q 2097 2700 2305 2904 
Q 2513 3109 2513 3406 
Q 2513 3716 2298 3927 
Q 2084 4138 1766 4138 
Q 1444 4138 1231 3931 
Q 1019 3725 1019 3438 
z
M 838 1322 
Q 838 1081 952 856 
Q 1066 631 1291 507 
Q 1516 384 1775 384 
Q 2178 384 2440 643 
Q 2703 903 2703 1303 
Q 2703 1709 2433 1975 
Q 2163 2241 1756 2241 
Q 1359 2241 1098 1978 
Q 838 1716 838 1322 
z
" transform="scale(0.015625)"/>
       </defs>
       <use xlink:href="#ArialMT-63"/>
       <use xlink:href="#ArialMT-68" x="50"/>
       <use xlink:href="#ArialMT-72" x="105.615234"/>
       <use xlink:href="#ArialMT-38" x="138.916016"/>
      </g>
     </g>
    </g>
    <g id="xtick_10">
     <g id="line2d_10">
      <g>
       <use xlink:href="#m58c69fa5f4" x="223.369017" y="73.1995" style="stroke: #000000; stroke-width: 0.8"/>
      </g>
     </g>
     <g id="text_10">
      <!-- chr9 -->
      <g transform="translate(217.533548 84.494188) scale(0.06 -0.06)">
       <defs>
        <path id="ArialMT-39" d="M 350 1059 
L 891 1109 
Q 959 728 1153 556 
Q 1347 384 1650 384 
Q 1909 384 2104 503 
Q 2300 622 2425 820 
Q 2550 1019 2634 1356 
Q 2719 1694 2719 2044 
Q 2719 2081 2716 2156 
Q 2547 1888 2255 1720 
Q 1963 1553 1622 1553 
Q 1053 1553 659 1965 
Q 266 2378 266 3053 
Q 266 3750 677 4175 
Q 1088 4600 1706 4600 
Q 2153 4600 2523 4359 
Q 2894 4119 3086 3673 
Q 3278 3228 3278 2384 
Q 3278 1506 3087 986 
Q 2897 466 2520 194 
Q 2144 -78 1638 -78 
Q 1100 -78 759 220 
Q 419 519 350 1059 
z
M 2653 3081 
Q 2653 3566 2395 3850 
Q 2138 4134 1775 4134 
Q 1400 4134 1122 3828 
Q 844 3522 844 3034 
Q 844 2597 1108 2323 
Q 1372 2050 1759 2050 
Q 2150 2050 2401 2323 
Q 2653 2597 2653 3081 
z
" transform="scale(0.015625)"/>
       </defs>
       <use xlink:href="#ArialMT-63"/>
       <use xlink:href="#ArialMT-68" x="50"/>
       <use xlink:href="#ArialMT-72" x="105.615234"/>
       <use xlink:href="#ArialMT-39" x="138.916016"/>
      </g>
     </g>
    </g>
    <g id="xtick_11">
     <g id="line2d_11">
      <g>
       <use xlink:href="#m58c69fa5f4" x="242.673223" y="73.1995" style="stroke: #000000; stroke-width: 0.8"/>
      </g>
     </g>
     <g id="text_11">
      <!-- chr10 -->
      <g transform="translate(235.169473 84.494188) scale(0.06 -0.06)">
       <defs>
        <path id="ArialMT-30" d="M 266 2259 
Q 266 3072 433 3567 
Q 600 4063 929 4331 
Q 1259 4600 1759 4600 
Q 2128 4600 2406 4451 
Q 2684 4303 2865 4023 
Q 3047 3744 3150 3342 
Q 3253 2941 3253 2259 
Q 3253 1453 3087 958 
Q 2922 463 2592 192 
Q 2263 -78 1759 -78 
Q 1097 -78 719 397 
Q 266 969 266 2259 
z
M 844 2259 
Q 844 1131 1108 757 
Q 1372 384 1759 384 
Q 2147 384 2411 759 
Q 2675 1134 2675 2259 
Q 2675 3391 2411 3762 
Q 2147 4134 1753 4134 
Q 1366 4134 1134 3806 
Q 844 3388 844 2259 
z
" transform="scale(0.015625)"/>
       </defs>
       <use xlink:href="#ArialMT-63"/>
       <use xlink:href="#ArialMT-68" x="50"/>
       <use xlink:href="#ArialMT-72" x="105.615234"/>
       <use xlink:href="#ArialMT-31" x="138.916016"/>
       <use xlink:href="#ArialMT-30" x="194.53125"/>
      </g>
     </g>
    </g>
    <g id="xtick_12">
     <g id="line2d_12">
      <g>
       <use xlink:href="#m58c69fa5f4" x="261.977428" y="73.1995" style="stroke: #000000; stroke-width: 0.8"/>
      </g>
     </g>
     <g id="text_12">
      <!-- chr11 -->
      <g transform="translate(254.694928 84.494188) scale(0.06 -0.06)">
       <use xlink:href="#ArialMT-63"/>
       <use xlink:href="#ArialMT-68" x="50"/>
       <use xlink:href="#ArialMT-72" x="105.615234"/>
       <use xlink:href="#ArialMT-31" x="138.916016"/>
       <use xlink:href="#ArialMT-31" x="187.15625"/>
      </g>
     </g>
    </g>
    <g id="xtick_13">
     <g id="line2d_13">
      <g>
       <use xlink:href="#m58c69fa5f4" x="281.281634" y="73.1995" style="stroke: #000000; stroke-width: 0.8"/>
      </g>
     </g>
     <g id="text_13">
      <!-- chr12 -->
      <g transform="translate(273.777884 84.494188) scale(0.06 -0.06)">
       <use xlink:href="#ArialMT-63"/>
       <use xlink:href="#ArialMT-68" x="50"/>
       <use xlink:href="#ArialMT-72" x="105.615234"/>
       <use xlink:href="#ArialMT-31" x="138.916016"/>
       <use xlink:href="#ArialMT-32" x="194.53125"/>
      </g>
     </g>
    </g>
    <g id="xtick_14">
     <g id="line2d_14">
      <g>
       <use xlink:href="#m58c69fa5f4" x="300.58584" y="73.1995" style="stroke: #000000; stroke-width: 0.8"/>
      </g>
     </g>
     <g id="text_14">
      <!-- chr13 -->
      <g transform="translate(293.08209 84.494188) scale(0.06 -0.06)">
       <use xlink:href="#ArialMT-63"/>
       <use xlink:href="#ArialMT-68" x="50"/>
       <use xlink:href="#ArialMT-72" x="105.615234"/>
       <use xlink:href="#ArialMT-31" x="138.916016"/>
       <use xlink:href="#ArialMT-33" x="194.53125"/>
      </g>
     </g>
    </g>
    <g id="xtick_15">
     <g id="line2d_15">
      <g>
       <use xlink:href="#m58c69fa5f4" x="319.890046" y="73.1995" style="stroke: #000000; stroke-width: 0.8"/>
      </g>
     </g>
     <g id="text_15">
      <!-- chr14 -->
      <g transform="translate(312.386296 84.494188) scale(0.06 -0.06)">
       <use xlink:href="#ArialMT-63"/>
       <use xlink:href="#ArialMT-68" x="50"/>
       <use xlink:href="#ArialMT-72" x="105.615234"/>
       <use xlink:href="#ArialMT-31" x="138.916016"/>
       <use xlink:href="#ArialMT-34" x="194.53125"/>
      </g>
     </g>
    </g>
    <g id="xtick_16">
     <g id="line2d_16">
      <g>
       <use xlink:href="#m58c69fa5f4" x="339.194251" y="73.1995" style="stroke: #000000; stroke-width: 0.8"/>
      </g>
     </g>
     <g id="text_16">
      <!-- chr15 -->
      <g transform="translate(331.690501 84.494188) scale(0.06 -0.06)">
       <use xlink:href="#ArialMT-63"/>
       <use xlink:href="#ArialMT-68" x="50"/>
       <use xlink:href="#ArialMT-72" x="105.615234"/>
       <use xlink:href="#ArialMT-31" x="138.916016"/>
       <use xlink:href="#ArialMT-35" x="194.53125"/>
      </g>
     </g>
    </g>
    <g id="xtick_17">
     <g id="line2d_17">
      <g>
       <use xlink:href="#m58c69fa5f4" x="358.498457" y="73.1995" style="stroke: #000000; stroke-width: 0.8"/>
      </g>
     </g>
     <g id="text_17">
      <!-- chr16 -->
      <g transform="translate(350.994707 84.494188) scale(0.06 -0.06)">
       <use xlink:href="#ArialMT-63"/>
       <use xlink:href="#ArialMT-68" x="50"/>
       <use xlink:href="#ArialMT-72" x="105.615234"/>
       <use xlink:href="#ArialMT-31" x="138.916016"/>
       <use xlink:href="#ArialMT-36" x="194.53125"/>
      </g>
     </g>
    </g>
    <g id="xtick_18">
     <g id="line2d_18">
      <g>
       <use xlink:href="#m58c69fa5f4" x="377.802663" y="73.1995" style="stroke: #000000; stroke-width: 0.8"/>
      </g>
     </g>
     <g id="text_18">
      <!-- chr17 -->
      <g transform="translate(370.298913 84.494188) scale(0.06 -0.06)">
       <use xlink:href="#ArialMT-63"/>
       <use xlink:href="#ArialMT-68" x="50"/>
       <use xlink:href="#ArialMT-72" x="105.615234"/>
       <use xlink:href="#ArialMT-31" x="138.916016"/>
       <use xlink:href="#ArialMT-37" x="194.53125"/>
      </g>
     </g>
    </g>
    <g id="xtick_19">
     <g id="line2d_19">
      <g>
       <use xlink:href="#m58c69fa5f4" x="397.106868" y="73.1995" style="stroke: #000000; stroke-width: 0.8"/>
      </g>
     </g>
     <g id="text_19">
      <!-- chr18 -->
      <g transform="translate(389.603118 84.494188) scale(0.06 -0.06)">
       <use xlink:href="#ArialMT-63"/>
       <use xlink:href="#ArialMT-68" x="50"/>
       <use xlink:href="#ArialMT-72" x="105.615234"/>
       <use xlink:href="#ArialMT-31" x="138.916016"/>
       <use xlink:href="#ArialMT-38" x="194.53125"/>
      </g>
     </g>
    </g>
    <g id="xtick_20">
     <g id="line2d_20">
      <g>
       <use xlink:href="#m58c69fa5f4" x="416.411074" y="73.1995" style="stroke: #000000; stroke-width: 0.8"/>
      </g>
     </g>
     <g id="text_20">
      <!-- chr19 -->
      <g transform="translate(408.907324 84.494188) scale(0.06 -0.06)">
       <use xlink:href="#ArialMT-63"/>
       <use xlink:href="#ArialMT-68" x="50"/>
       <use xlink:href="#ArialMT-72" x="105.615234"/>
       <use xlink:href="#ArialMT-31" x="138.916016"/>
       <use xlink:href="#ArialMT-39" x="194.53125"/>
      </g>
     </g>
    </g>
    <g id="xtick_21">
     <g id="line2d_21">
      <g>
       <use xlink:href="#m58c69fa5f4" x="435.71528" y="73.1995" style="stroke: #000000; stroke-width: 0.8"/>
      </g>
     </g>
     <g id="text_21">
      <!-- chr20 -->
      <g transform="translate(428.21153 84.494188) scale(0.06 -0.06)">
       <use xlink:href="#ArialMT-63"/>
       <use xlink:href="#ArialMT-68" x="50"/>
       <use xlink:href="#ArialMT-72" x="105.615234"/>
       <use xlink:href="#ArialMT-32" x="138.916016"/>
       <use xlink:href="#ArialMT-30" x="194.53125"/>
      </g>
     </g>
    </g>
    <g id="xtick_22">
     <g id="line2d_22">
      <g>
       <use xlink:href="#m58c69fa5f4" x="455.019486" y="73.1995" style="stroke: #000000; stroke-width: 0.8"/>
      </g>
     </g>
     <g id="text_22">
      <!-- chr21 -->
      <g transform="translate(447.515736 84.494188) scale(0.06 -0.06)">
       <use xlink:href="#ArialMT-63"/>
       <use xlink:href="#ArialMT-68" x="50"/>
       <use xlink:href="#ArialMT-72" x="105.615234"/>
       <use xlink:href="#ArialMT-32" x="138.916016"/>
       <use xlink:href="#ArialMT-31" x="194.53125"/>
      </g>
     </g>
    </g>
    <g id="xtick_23">
     <g id="line2d_23">
      <g>
       <use xlink:href="#m58c69fa5f4" x="474.323691" y="73.1995" style="stroke: #000000; stroke-width: 0.8"/>
      </g>
     </g>
     <g id="text_23">
      <!-- chr22 -->
      <g transform="translate(466.819941 84.494188) scale(0.06 -0.06)">
       <use xlink:href="#ArialMT-63"/>
       <use xlink:href="#ArialMT-68" x="50"/>
       <use xlink:href="#ArialMT-72" x="105.615234"/>
       <use xlink:href="#ArialMT-32" x="138.916016"/>
       <use xlink:href="#ArialMT-32" x="194.53125"/>
      </g>
     </g>
    </g>
    <g id="xtick_24">
     <g id="line2d_24">
      <g>
       <use xlink:href="#m58c69fa5f4" x="493.627897" y="73.1995" style="stroke: #000000; stroke-width: 0.8"/>
      </g>
     </g>
     <g id="text_24">
      <!-- chrX -->
      <g transform="translate(487.459616 84.494188) scale(0.06 -0.06)">
       <defs>
        <path id="ArialMT-58" d="M 28 0 
L 1800 2388 
L 238 4581 
L 959 4581 
L 1791 3406 
Q 2050 3041 2159 2844 
Q 2313 3094 2522 3366 
L 3444 4581 
L 4103 4581 
L 2494 2422 
L 4228 0 
L 3478 0 
L 2325 1634 
Q 2228 1775 2125 1941 
Q 1972 1691 1906 1597 
L 756 0 
L 28 0 
z
" transform="scale(0.015625)"/>
       </defs>
       <use xlink:href="#ArialMT-63"/>
       <use xlink:href="#ArialMT-68" x="50"/>
       <use xlink:href="#ArialMT-72" x="105.615234"/>
       <use xlink:href="#ArialMT-58" x="138.916016"/>
      </g>
     </g>
    </g>
    <g id="text_25">
     <!-- Chromosome -->
     <g transform="translate(253.624844 100.3275) scale(0.06 -0.06)">
      <defs>
       <path id="ArialMT-43" d="M 3763 1606 
L 4369 1453 
Q 4178 706 3683 314 
Q 3188 -78 2472 -78 
Q 1731 -78 1267 223 
Q 803 525 561 1097 
Q 319 1669 319 2325 
Q 319 3041 592 3573 
Q 866 4106 1370 4382 
Q 1875 4659 2481 4659 
Q 3169 4659 3637 4309 
Q 4106 3959 4291 3325 
L 3694 3184 
Q 3534 3684 3231 3912 
Q 2928 4141 2469 4141 
Q 1941 4141 1586 3887 
Q 1231 3634 1087 3207 
Q 944 2781 944 2328 
Q 944 1744 1114 1308 
Q 1284 872 1643 656 
Q 2003 441 2422 441 
Q 2931 441 3284 734 
Q 3638 1028 3763 1606 
z
" transform="scale(0.015625)"/>
       <path id="ArialMT-73" d="M 197 991 
L 753 1078 
Q 800 744 1014 566 
Q 1228 388 1613 388 
Q 2000 388 2187 545 
Q 2375 703 2375 916 
Q 2375 1106 2209 1216 
Q 2094 1291 1634 1406 
Q 1016 1563 777 1677 
Q 538 1791 414 1992 
Q 291 2194 291 2438 
Q 291 2659 392 2848 
Q 494 3038 669 3163 
Q 800 3259 1026 3326 
Q 1253 3394 1513 3394 
Q 1903 3394 2198 3281 
Q 2494 3169 2634 2976 
Q 2775 2784 2828 2463 
L 2278 2388 
Q 2241 2644 2061 2787 
Q 1881 2931 1553 2931 
Q 1166 2931 1000 2803 
Q 834 2675 834 2503 
Q 834 2394 903 2306 
Q 972 2216 1119 2156 
Q 1203 2125 1616 2013 
Q 2213 1853 2448 1751 
Q 2684 1650 2818 1456 
Q 2953 1263 2953 975 
Q 2953 694 2789 445 
Q 2625 197 2315 61 
Q 2006 -75 1616 -75 
Q 969 -75 630 194 
Q 291 463 197 991 
z
" transform="scale(0.015625)"/>
      </defs>
      <use xlink:href="#ArialMT-43"/>
      <use xlink:href="#ArialMT-68" x="72.216797"/>
      <use xlink:href="#ArialMT-72" x="127.832031"/>
      <use xlink:href="#ArialMT-6f" x="161.132812"/>
      <use xlink:href="#ArialMT-6d" x="216.748047"/>
      <use xlink:href="#ArialMT-6f" x="300.048828"/>
      <use xlink:href="#ArialMT-73" x="355.664062"/>
      <use xlink:href="#ArialMT-6f" x="405.664062"/>
      <use xlink:href="#ArialMT-6d" x="461.279297"/>
      <use xlink:href="#ArialMT-65" x="544.580078"/>
     </g>
    </g>
   </g>
   <g id="matplotlib.axis_2">
    <g id="ytick_1">
     <g id="line2d_25">
      <path d="M 39.979062 73.1995 
L 503.28 73.1995 
" clip-path="url(#p01facc60ec)" style="fill: none; stroke: #b0b0b0; stroke-opacity: 0.5; stroke-width: 0.8; stroke-linecap: square"/>
     </g>
     <g id="line2d_26">
      <defs>
       <path id="m14bf3f4b8f" d="M 0 0 
L -3.5 0 
" style="stroke: #000000; stroke-width: 0.8"/>
      </defs>
      <g>
       <use xlink:href="#m14bf3f4b8f" x="39.979062" y="73.1995" style="stroke: #000000; stroke-width: 0.8"/>
      </g>
     </g>
     <g id="text_26">
      <!-- 0.00% -->
      <g transform="translate(15.967187 75.346844) scale(0.06 -0.06)">
       <defs>
        <path id="ArialMT-2e" d="M 581 0 
L 581 641 
L 1222 641 
L 1222 0 
L 581 0 
z
" transform="scale(0.015625)"/>
        <path id="ArialMT-25" d="M 372 3481 
Q 372 3972 619 4315 
Q 866 4659 1334 4659 
Q 1766 4659 2048 4351 
Q 2331 4044 2331 3447 
Q 2331 2866 2045 2552 
Q 1759 2238 1341 2238 
Q 925 2238 648 2547 
Q 372 2856 372 3481 
z
M 1350 4272 
Q 1141 4272 1002 4090 
Q 863 3909 863 3425 
Q 863 2984 1003 2804 
Q 1144 2625 1350 2625 
Q 1563 2625 1702 2806 
Q 1841 2988 1841 3469 
Q 1841 3913 1700 4092 
Q 1559 4272 1350 4272 
z
M 1353 -169 
L 3859 4659 
L 4316 4659 
L 1819 -169 
L 1353 -169 
z
M 3334 1075 
Q 3334 1569 3581 1911 
Q 3828 2253 4300 2253 
Q 4731 2253 5014 1945 
Q 5297 1638 5297 1041 
Q 5297 459 5011 145 
Q 4725 -169 4303 -169 
Q 3888 -169 3611 142 
Q 3334 453 3334 1075 
z
M 4316 1866 
Q 4103 1866 3964 1684 
Q 3825 1503 3825 1019 
Q 3825 581 3965 400 
Q 4106 219 4313 219 
Q 4528 219 4667 400 
Q 4806 581 4806 1063 
Q 4806 1506 4665 1686 
Q 4525 1866 4316 1866 
z
" transform="scale(0.015625)"/>
       </defs>
       <use xlink:href="#ArialMT-30"/>
       <use xlink:href="#ArialMT-2e" x="55.615234"/>
       <use xlink:href="#ArialMT-30" x="83.398438"/>
       <use xlink:href="#ArialMT-30" x="139.013672"/>
       <use xlink:href="#ArialMT-25" x="194.628906"/>
      </g>
     </g>
    </g>
    <g id="ytick_2">
     <g id="line2d_27">
      <path d="M 39.979062 49.430186 
L 503.28 49.430186 
" clip-path="url(#p01facc60ec)" style="fill: none; stroke: #b0b0b0; stroke-opacity: 0.5; stroke-width: 0.8; stroke-linecap: square"/>
     </g>
     <g id="line2d_28">
      <g>
       <use xlink:href="#m14bf3f4b8f" x="39.979062" y="49.430186" style="stroke: #000000; stroke-width: 0.8"/>
      </g>
     </g>
     <g id="text_27">
      <!-- 0.50% -->
      <g transform="translate(15.967187 51.57753) scale(0.06 -0.06)">
       <use xlink:href="#ArialMT-30"/>
       <use xlink:href="#ArialMT-2e" x="55.615234"/>
       <use xlink:href="#ArialMT-35" x="83.398438"/>
       <use xlink:href="#ArialMT-30" x="139.013672"/>
       <use xlink:href="#ArialMT-25" x="194.628906"/>
      </g>
     </g>
    </g>
    <g id="ytick_3">
     <g id="line2d_29">
      <path d="M 39.979062 25.660872 
L 503.28 25.660872 
" clip-path="url(#p01facc60ec)" style="fill: none; stroke: #b0b0b0; stroke-opacity: 0.5; stroke-width: 0.8; stroke-linecap: square"/>
     </g>
     <g id="line2d_30">
      <g>
       <use xlink:href="#m14bf3f4b8f" x="39.979062" y="25.660872" style="stroke: #000000; stroke-width: 0.8"/>
      </g>
     </g>
     <g id="text_28">
      <!-- 1.00% -->
      <g transform="translate(15.967187 27.808215) scale(0.06 -0.06)">
       <use xlink:href="#ArialMT-31"/>
       <use xlink:href="#ArialMT-2e" x="55.615234"/>
       <use xlink:href="#ArialMT-30" x="83.398438"/>
       <use xlink:href="#ArialMT-30" x="139.013672"/>
       <use xlink:href="#ArialMT-25" x="194.628906"/>
      </g>
     </g>
    </g>
    <g id="text_29">
     <!-- Switch Error Rate -->
     <g transform="translate(10.774687 63.345219) rotate(-90) scale(0.06 -0.06)">
      <defs>
       <path id="ArialMT-53" d="M 288 1472 
L 859 1522 
Q 900 1178 1048 958 
Q 1197 738 1509 602 
Q 1822 466 2213 466 
Q 2559 466 2825 569 
Q 3091 672 3220 851 
Q 3350 1031 3350 1244 
Q 3350 1459 3225 1620 
Q 3100 1781 2813 1891 
Q 2628 1963 1997 2114 
Q 1366 2266 1113 2400 
Q 784 2572 623 2826 
Q 463 3081 463 3397 
Q 463 3744 659 4045 
Q 856 4347 1234 4503 
Q 1613 4659 2075 4659 
Q 2584 4659 2973 4495 
Q 3363 4331 3572 4012 
Q 3781 3694 3797 3291 
L 3216 3247 
Q 3169 3681 2898 3903 
Q 2628 4125 2100 4125 
Q 1550 4125 1298 3923 
Q 1047 3722 1047 3438 
Q 1047 3191 1225 3031 
Q 1400 2872 2139 2705 
Q 2878 2538 3153 2413 
Q 3553 2228 3743 1945 
Q 3934 1663 3934 1294 
Q 3934 928 3725 604 
Q 3516 281 3123 101 
Q 2731 -78 2241 -78 
Q 1619 -78 1198 103 
Q 778 284 539 648 
Q 300 1013 288 1472 
z
" transform="scale(0.015625)"/>
       <path id="ArialMT-77" d="M 1034 0 
L 19 3319 
L 600 3319 
L 1128 1403 
L 1325 691 
Q 1338 744 1497 1375 
L 2025 3319 
L 2603 3319 
L 3100 1394 
L 3266 759 
L 3456 1400 
L 4025 3319 
L 4572 3319 
L 3534 0 
L 2950 0 
L 2422 1988 
L 2294 2553 
L 1622 0 
L 1034 0 
z
" transform="scale(0.015625)"/>
       <path id="ArialMT-69" d="M 425 3934 
L 425 4581 
L 988 4581 
L 988 3934 
L 425 3934 
z
M 425 0 
L 425 3319 
L 988 3319 
L 988 0 
L 425 0 
z
" transform="scale(0.015625)"/>
       <path id="ArialMT-74" d="M 1650 503 
L 1731 6 
Q 1494 -44 1306 -44 
Q 1000 -44 831 53 
Q 663 150 594 308 
Q 525 466 525 972 
L 525 2881 
L 113 2881 
L 113 3319 
L 525 3319 
L 525 4141 
L 1084 4478 
L 1084 3319 
L 1650 3319 
L 1650 2881 
L 1084 2881 
L 1084 941 
Q 1084 700 1114 631 
Q 1144 563 1211 522 
Q 1278 481 1403 481 
Q 1497 481 1650 503 
z
" transform="scale(0.015625)"/>
       <path id="ArialMT-20" transform="scale(0.015625)"/>
       <path id="ArialMT-45" d="M 506 0 
L 506 4581 
L 3819 4581 
L 3819 4041 
L 1113 4041 
L 1113 2638 
L 3647 2638 
L 3647 2100 
L 1113 2100 
L 1113 541 
L 3925 541 
L 3925 0 
L 506 0 
z
" transform="scale(0.015625)"/>
       <path id="ArialMT-52" d="M 503 0 
L 503 4581 
L 2534 4581 
Q 3147 4581 3465 4457 
Q 3784 4334 3975 4021 
Q 4166 3709 4166 3331 
Q 4166 2844 3850 2509 
Q 3534 2175 2875 2084 
Q 3116 1969 3241 1856 
Q 3506 1613 3744 1247 
L 4541 0 
L 3778 0 
L 3172 953 
Q 2906 1366 2734 1584 
Q 2563 1803 2427 1890 
Q 2291 1978 2150 2013 
Q 2047 2034 1813 2034 
L 1109 2034 
L 1109 0 
L 503 0 
z
M 1109 2559 
L 2413 2559 
Q 2828 2559 3062 2645 
Q 3297 2731 3419 2920 
Q 3541 3109 3541 3331 
Q 3541 3656 3305 3865 
Q 3069 4075 2559 4075 
L 1109 4075 
L 1109 2559 
z
" transform="scale(0.015625)"/>
       <path id="ArialMT-61" d="M 2588 409 
Q 2275 144 1986 34 
Q 1697 -75 1366 -75 
Q 819 -75 525 192 
Q 231 459 231 875 
Q 231 1119 342 1320 
Q 453 1522 633 1644 
Q 813 1766 1038 1828 
Q 1203 1872 1538 1913 
Q 2219 1994 2541 2106 
Q 2544 2222 2544 2253 
Q 2544 2597 2384 2738 
Q 2169 2928 1744 2928 
Q 1347 2928 1158 2789 
Q 969 2650 878 2297 
L 328 2372 
Q 403 2725 575 2942 
Q 747 3159 1072 3276 
Q 1397 3394 1825 3394 
Q 2250 3394 2515 3294 
Q 2781 3194 2906 3042 
Q 3031 2891 3081 2659 
Q 3109 2516 3109 2141 
L 3109 1391 
Q 3109 606 3145 398 
Q 3181 191 3288 0 
L 2700 0 
Q 2613 175 2588 409 
z
M 2541 1666 
Q 2234 1541 1622 1453 
Q 1275 1403 1131 1340 
Q 988 1278 909 1158 
Q 831 1038 831 891 
Q 831 666 1001 516 
Q 1172 366 1500 366 
Q 1825 366 2078 508 
Q 2331 650 2450 897 
Q 2541 1088 2541 1459 
L 2541 1666 
z
" transform="scale(0.015625)"/>
      </defs>
      <use xlink:href="#ArialMT-53"/>
      <use xlink:href="#ArialMT-77" x="66.699219"/>
      <use xlink:href="#ArialMT-69" x="138.916016"/>
      <use xlink:href="#ArialMT-74" x="161.132812"/>
      <use xlink:href="#ArialMT-63" x="188.916016"/>
      <use xlink:href="#ArialMT-68" x="238.916016"/>
      <use xlink:href="#ArialMT-20" x="294.53125"/>
      <use xlink:href="#ArialMT-45" x="322.314453"/>
      <use xlink:href="#ArialMT-72" x="389.013672"/>
      <use xlink:href="#ArialMT-72" x="422.314453"/>
      <use xlink:href="#ArialMT-6f" x="455.615234"/>
      <use xlink:href="#ArialMT-72" x="511.230469"/>
      <use xlink:href="#ArialMT-20" x="544.53125"/>
      <use xlink:href="#ArialMT-52" x="572.314453"/>
      <use xlink:href="#ArialMT-61" x="644.53125"/>
      <use xlink:href="#ArialMT-74" x="700.146484"/>
      <use xlink:href="#ArialMT-65" x="727.929688"/>
     </g>
    </g>
   </g>
   <g id="patch_3">
    <path d="M 41.909483 73.1995 
L 49.631165 73.1995 
L 49.631165 53.843453 
L 41.909483 53.843453 
z
" clip-path="url(#p01facc60ec)" style="fill: #666666"/>
   </g>
   <g id="patch_4">
    <path d="M 61.213689 73.1995 
L 68.935371 73.1995 
L 68.935371 53.900661 
L 61.213689 53.900661 
z
" clip-path="url(#p01facc60ec)" style="fill: #666666"/>
   </g>
   <g id="patch_5">
    <path d="M 80.517895 73.1995 
L 88.239577 73.1995 
L 88.239577 55.515703 
L 80.517895 55.515703 
z
" clip-path="url(#p01facc60ec)" style="fill: #666666"/>
   </g>
   <g id="patch_6">
    <path d="M 99.8221 73.1995 
L 107.543783 73.1995 
L 107.543783 56.46427 
L 99.8221 56.46427 
z
" clip-path="url(#p01facc60ec)" style="fill: #666666"/>
   </g>
   <g id="patch_7">
    <path d="M 119.126306 73.1995 
L 126.847988 73.1995 
L 126.847988 58.033882 
L 119.126306 58.033882 
z
" clip-path="url(#p01facc60ec)" style="fill: #666666"/>
   </g>
   <g id="patch_8">
    <path d="M 138.430512 73.1995 
L 146.152194 73.1995 
L 146.152194 56.825019 
L 138.430512 56.825019 
z
" clip-path="url(#p01facc60ec)" style="fill: #666666"/>
   </g>
   <g id="patch_9">
    <path d="M 157.734717 73.1995 
L 165.4564 73.1995 
L 165.4564 57.134399 
L 157.734717 57.134399 
z
" clip-path="url(#p01facc60ec)" style="fill: #666666"/>
   </g>
   <g id="patch_10">
    <path d="M 177.038923 73.1995 
L 184.760605 73.1995 
L 184.760605 54.256627 
L 177.038923 54.256627 
z
" clip-path="url(#p01facc60ec)" style="fill: #666666"/>
   </g>
   <g id="patch_11">
    <path d="M 196.343129 73.1995 
L 204.064811 73.1995 
L 204.064811 49.168954 
L 196.343129 49.168954 
z
" clip-path="url(#p01facc60ec)" style="fill: #666666"/>
   </g>
   <g id="patch_12">
    <path d="M 215.647335 73.1995 
L 223.369017 73.1995 
L 223.369017 53.441733 
L 215.647335 53.441733 
z
" clip-path="url(#p01facc60ec)" style="fill: #666666"/>
   </g>
   <g id="patch_13">
    <path d="M 234.95154 73.1995 
L 242.673223 73.1995 
L 242.673223 55.124736 
L 234.95154 55.124736 
z
" clip-path="url(#p01facc60ec)" style="fill: #666666"/>
   </g>
   <g id="patch_14">
    <path d="M 254.255746 73.1995 
L 261.977428 73.1995 
L 261.977428 55.742145 
L 254.255746 55.742145 
z
" clip-path="url(#p01facc60ec)" style="fill: #666666"/>
   </g>
   <g id="patch_15">
    <path d="M 273.559952 73.1995 
L 281.281634 73.1995 
L 281.281634 54.288625 
L 273.559952 54.288625 
z
" clip-path="url(#p01facc60ec)" style="fill: #666666"/>
   </g>
   <g id="patch_16">
    <path d="M 292.864158 73.1995 
L 300.58584 73.1995 
L 300.58584 56.397577 
L 292.864158 56.397577 
z
" clip-path="url(#p01facc60ec)" style="fill: #666666"/>
   </g>
   <g id="patch_17">
    <path d="M 312.168363 73.1995 
L 319.890046 73.1995 
L 319.890046 52.741126 
L 312.168363 52.741126 
z
" clip-path="url(#p01facc60ec)" style="fill: #666666"/>
   </g>
   <g id="patch_18">
    <path d="M 331.472569 73.1995 
L 339.194251 73.1995 
L 339.194251 53.160586 
L 331.472569 53.160586 
z
" clip-path="url(#p01facc60ec)" style="fill: #666666"/>
   </g>
   <g id="patch_19">
    <path d="M 350.776775 73.1995 
L 358.498457 73.1995 
L 358.498457 51.329539 
L 350.776775 51.329539 
z
" clip-path="url(#p01facc60ec)" style="fill: #666666"/>
   </g>
   <g id="patch_20">
    <path d="M 370.08098 73.1995 
L 377.802663 73.1995 
L 377.802663 47.27518 
L 370.08098 47.27518 
z
" clip-path="url(#p01facc60ec)" style="fill: #666666"/>
   </g>
   <g id="patch_21">
    <path d="M 389.385186 73.1995 
L 397.106868 73.1995 
L 397.106868 55.852987 
L 389.385186 55.852987 
z
" clip-path="url(#p01facc60ec)" style="fill: #666666"/>
   </g>
   <g id="patch_22">
    <path d="M 408.689392 73.1995 
L 416.411074 73.1995 
L 416.411074 48.504968 
L 408.689392 48.504968 
z
" clip-path="url(#p01facc60ec)" style="fill: #666666"/>
   </g>
   <g id="patch_23">
    <path d="M 427.993598 73.1995 
L 435.71528 73.1995 
L 435.71528 52.358676 
L 427.993598 52.358676 
z
" clip-path="url(#p01facc60ec)" style="fill: #666666"/>
   </g>
   <g id="patch_24">
    <path d="M 447.297803 73.1995 
L 455.019486 73.1995 
L 455.019486 52.662963 
L 447.297803 52.662963 
z
" clip-path="url(#p01facc60ec)" style="fill: #666666"/>
   </g>
   <g id="patch_25">
    <path d="M 466.602009 73.1995 
L 474.323691 73.1995 
L 474.323691 49.07223 
L 466.602009 49.07223 
z
" clip-path="url(#p01facc60ec)" style="fill: #666666"/>
   </g>
   <g id="patch_26">
    <path d="M 485.906215 73.1995 
L 493.627897 73.1995 
L 493.627897 28.495758 
L 485.906215 28.495758 
z
" clip-path="url(#p01facc60ec)" style="fill: #666666"/>
   </g>
   <g id="patch_27">
    <path d="M 49.631165 73.1995 
L 57.352848 73.1995 
L 57.352848 56.315992 
L 49.631165 56.315992 
z
" clip-path="url(#p01facc60ec)" style="fill: #9372b2"/>
   </g>
   <g id="patch_28">
    <path d="M 68.935371 73.1995 
L 76.657053 73.1995 
L 76.657053 54.166126 
L 68.935371 54.166126 
z
" clip-path="url(#p01facc60ec)" style="fill: #9372b2"/>
   </g>
   <g id="patch_29">
    <path d="M 88.239577 73.1995 
L 95.961259 73.1995 
L 95.961259 58.318726 
L 88.239577 58.318726 
z
" clip-path="url(#p01facc60ec)" style="fill: #9372b2"/>
   </g>
   <g id="patch_30">
    <path d="M 107.543783 73.1995 
L 115.265465 73.1995 
L 115.265465 58.507877 
L 107.543783 58.507877 
z
" clip-path="url(#p01facc60ec)" style="fill: #9372b2"/>
   </g>
   <g id="patch_31">
    <path d="M 126.847988 73.1995 
L 134.569671 73.1995 
L 134.569671 59.095369 
L 126.847988 59.095369 
z
" clip-path="url(#p01facc60ec)" style="fill: #9372b2"/>
   </g>
   <g id="patch_32">
    <path d="M 146.152194 73.1995 
L 153.873876 73.1995 
L 153.873876 58.021685 
L 146.152194 58.021685 
z
" clip-path="url(#p01facc60ec)" style="fill: #9372b2"/>
   </g>
   <g id="patch_33">
    <path d="M 165.4564 73.1995 
L 173.178082 73.1995 
L 173.178082 58.936481 
L 165.4564 58.936481 
z
" clip-path="url(#p01facc60ec)" style="fill: #9372b2"/>
   </g>
   <g id="patch_34">
    <path d="M 184.760605 73.1995 
L 192.482288 73.1995 
L 192.482288 56.083143 
L 184.760605 56.083143 
z
" clip-path="url(#p01facc60ec)" style="fill: #9372b2"/>
   </g>
   <g id="patch_35">
    <path d="M 204.064811 73.1995 
L 211.786493 73.1995 
L 211.786493 50.751796 
L 204.064811 50.751796 
z
" clip-path="url(#p01facc60ec)" style="fill: #9372b2"/>
   </g>
   <g id="patch_36">
    <path d="M 223.369017 73.1995 
L 231.090699 73.1995 
L 231.090699 57.761081 
L 223.369017 57.761081 
z
" clip-path="url(#p01facc60ec)" style="fill: #9372b2"/>
   </g>
   <g id="patch_37">
    <path d="M 242.673223 73.1995 
L 250.394905 73.1995 
L 250.394905 58.007362 
L 242.673223 58.007362 
z
" clip-path="url(#p01facc60ec)" style="fill: #9372b2"/>
   </g>
   <g id="patch_38">
    <path d="M 261.977428 73.1995 
L 269.699111 73.1995 
L 269.699111 57.729934 
L 261.977428 57.729934 
z
" clip-path="url(#p01facc60ec)" style="fill: #9372b2"/>
   </g>
   <g id="patch_39">
    <path d="M 281.281634 73.1995 
L 289.003316 73.1995 
L 289.003316 54.854814 
L 281.281634 54.854814 
z
" clip-path="url(#p01facc60ec)" style="fill: #9372b2"/>
   </g>
   <g id="patch_40">
    <path d="M 300.58584 73.1995 
L 308.307522 73.1995 
L 308.307522 57.138169 
L 300.58584 57.138169 
z
" clip-path="url(#p01facc60ec)" style="fill: #9372b2"/>
   </g>
   <g id="patch_41">
    <path d="M 319.890046 73.1995 
L 327.611728 73.1995 
L 327.611728 56.173956 
L 319.890046 56.173956 
z
" clip-path="url(#p01facc60ec)" style="fill: #9372b2"/>
   </g>
   <g id="patch_42">
    <path d="M 339.194251 73.1995 
L 346.915934 73.1995 
L 346.915934 56.224165 
L 339.194251 56.224165 
z
" clip-path="url(#p01facc60ec)" style="fill: #9372b2"/>
   </g>
   <g id="patch_43">
    <path d="M 358.498457 73.1995 
L 366.220139 73.1995 
L 366.220139 53.703599 
L 358.498457 53.703599 
z
" clip-path="url(#p01facc60ec)" style="fill: #9372b2"/>
   </g>
   <g id="patch_44">
    <path d="M 377.802663 73.1995 
L 385.524345 73.1995 
L 385.524345 49.772846 
L 377.802663 49.772846 
z
" clip-path="url(#p01facc60ec)" style="fill: #9372b2"/>
   </g>
   <g id="patch_45">
    <path d="M 397.106868 73.1995 
L 404.828551 73.1995 
L 404.828551 58.670424 
L 397.106868 58.670424 
z
" clip-path="url(#p01facc60ec)" style="fill: #9372b2"/>
   </g>
   <g id="patch_46">
    <path d="M 416.411074 73.1995 
L 424.132757 73.1995 
L 424.132757 50.834299 
L 416.411074 50.834299 
z
" clip-path="url(#p01facc60ec)" style="fill: #9372b2"/>
   </g>
   <g id="patch_47">
    <path d="M 435.71528 73.1995 
L 443.436962 73.1995 
L 443.436962 54.088136 
L 435.71528 54.088136 
z
" clip-path="url(#p01facc60ec)" style="fill: #9372b2"/>
   </g>
   <g id="patch_48">
    <path d="M 455.019486 73.1995 
L 462.741168 73.1995 
L 462.741168 56.825139 
L 455.019486 56.825139 
z
" clip-path="url(#p01facc60ec)" style="fill: #9372b2"/>
   </g>
   <g id="patch_49">
    <path d="M 474.323691 73.1995 
L 482.045374 73.1995 
L 482.045374 51.525244 
L 474.323691 51.525244 
z
" clip-path="url(#p01facc60ec)" style="fill: #9372b2"/>
   </g>
   <g id="patch_50">
    <path d="M 493.627897 73.1995 
L 501.349579 73.1995 
L 501.349579 52.487914 
L 493.627897 52.487914 
z
" clip-path="url(#p01facc60ec)" style="fill: #9372b2"/>
   </g>
   <g id="patch_51">
    <path d="M 49.631165 73.1995 
L 49.631165 73.1995 
L 49.631165 73.1995 
L 49.631165 73.1995 
z
" clip-path="url(#p01facc60ec)" style="fill: #666666"/>
   </g>
   <g id="patch_52">
    <path d="M 49.631165 73.1995 
L 49.631165 73.1995 
L 49.631165 73.1995 
L 49.631165 73.1995 
z
" clip-path="url(#p01facc60ec)" style="fill: #9372b2"/>
   </g>
   <g id="line2d_31">
    <path d="M 44.322509 54.449063 
L 47.21814 54.449063 
M 45.770324 54.449063 
L 45.770324 53.21091 
M 44.322509 53.21091 
L 47.21814 53.21091 
" clip-path="url(#p01facc60ec)" style="fill: none; stroke: #424242; stroke-width: 0.5; stroke-linecap: square"/>
   </g>
   <g id="line2d_32">
    <path d="M 63.626715 54.59152 
L 66.522345 54.59152 
M 65.07453 54.59152 
L 65.07453 53.118848 
M 63.626715 53.118848 
L 66.522345 53.118848 
" clip-path="url(#p01facc60ec)" style="fill: none; stroke: #424242; stroke-width: 0.5; stroke-linecap: square"/>
   </g>
   <g id="line2d_33">
    <path d="M 82.93092 56.04309 
L 85.826551 56.04309 
M 84.378736 56.04309 
L 84.378736 54.932137 
M 82.93092 54.932137 
L 85.826551 54.932137 
" clip-path="url(#p01facc60ec)" style="fill: none; stroke: #424242; stroke-width: 0.5; stroke-linecap: square"/>
   </g>
   <g id="line2d_34">
    <path d="M 102.235126 57.192544 
L 105.130757 57.192544 
M 103.682941 57.192544 
L 103.682941 55.589006 
M 102.235126 55.589006 
L 105.130757 55.589006 
" clip-path="url(#p01facc60ec)" style="fill: none; stroke: #424242; stroke-width: 0.5; stroke-linecap: square"/>
   </g>
   <g id="line2d_35">
    <path d="M 121.539332 58.607925 
L 124.434963 58.607925 
M 122.987147 58.607925 
L 122.987147 57.417479 
M 121.539332 57.417479 
L 124.434963 57.417479 
" clip-path="url(#p01facc60ec)" style="fill: none; stroke: #424242; stroke-width: 0.5; stroke-linecap: square"/>
   </g>
   <g id="line2d_36">
    <path d="M 140.843537 57.549833 
L 143.739168 57.549833 
M 142.291353 57.549833 
L 142.291353 56.083858 
M 140.843537 56.083858 
L 143.739168 56.083858 
" clip-path="url(#p01facc60ec)" style="fill: none; stroke: #424242; stroke-width: 0.5; stroke-linecap: square"/>
   </g>
   <g id="line2d_37">
    <path d="M 160.147743 57.802627 
L 163.043374 57.802627 
M 161.595559 57.802627 
L 161.595559 56.426158 
M 160.147743 56.426158 
L 163.043374 56.426158 
" clip-path="url(#p01facc60ec)" style="fill: none; stroke: #424242; stroke-width: 0.5; stroke-linecap: square"/>
   </g>
   <g id="line2d_38">
    <path d="M 179.451949 55.091803 
L 182.34758 55.091803 
M 180.899764 55.091803 
L 180.899764 53.44581 
M 179.451949 53.44581 
L 182.34758 53.44581 
" clip-path="url(#p01facc60ec)" style="fill: none; stroke: #424242; stroke-width: 0.5; stroke-linecap: square"/>
   </g>
   <g id="line2d_39">
    <path d="M 198.756155 50.163589 
L 201.651785 50.163589 
M 200.20397 50.163589 
L 200.20397 48.159674 
M 198.756155 48.159674 
L 201.651785 48.159674 
" clip-path="url(#p01facc60ec)" style="fill: none; stroke: #424242; stroke-width: 0.5; stroke-linecap: square"/>
   </g>
   <g id="line2d_40">
    <path d="M 218.06036 54.315089 
L 220.955991 54.315089 
M 219.508176 54.315089 
L 219.508176 52.644543 
M 218.06036 52.644543 
L 220.955991 52.644543 
" clip-path="url(#p01facc60ec)" style="fill: none; stroke: #424242; stroke-width: 0.5; stroke-linecap: square"/>
   </g>
   <g id="line2d_41">
    <path d="M 237.364566 55.666281 
L 240.260197 55.666281 
M 238.812382 55.666281 
L 238.812382 54.587722 
M 237.364566 54.587722 
L 240.260197 54.587722 
" clip-path="url(#p01facc60ec)" style="fill: none; stroke: #424242; stroke-width: 0.5; stroke-linecap: square"/>
   </g>
   <g id="line2d_42">
    <path d="M 256.668772 56.500831 
L 259.564403 56.500831 
M 258.116587 56.500831 
L 258.116587 54.903824 
M 256.668772 54.903824 
L 259.564403 54.903824 
" clip-path="url(#p01facc60ec)" style="fill: none; stroke: #424242; stroke-width: 0.5; stroke-linecap: square"/>
   </g>
   <g id="line2d_43">
    <path d="M 275.972978 55.017023 
L 278.868608 55.017023 
M 277.420793 55.017023 
L 277.420793 53.538209 
M 275.972978 53.538209 
L 278.868608 53.538209 
" clip-path="url(#p01facc60ec)" style="fill: none; stroke: #424242; stroke-width: 0.5; stroke-linecap: square"/>
   </g>
   <g id="line2d_44">
    <path d="M 295.277183 57.281526 
L 298.172814 57.281526 
M 296.724999 57.281526 
L 296.724999 55.279642 
M 295.277183 55.279642 
L 298.172814 55.279642 
" clip-path="url(#p01facc60ec)" style="fill: none; stroke: #424242; stroke-width: 0.5; stroke-linecap: square"/>
   </g>
   <g id="line2d_45">
    <path d="M 314.581389 53.799291 
L 317.47702 53.799291 
M 316.029204 53.799291 
L 316.029204 51.485206 
M 314.581389 51.485206 
L 317.47702 51.485206 
" clip-path="url(#p01facc60ec)" style="fill: none; stroke: #424242; stroke-width: 0.5; stroke-linecap: square"/>
   </g>
   <g id="line2d_46">
    <path d="M 333.885595 53.984895 
L 336.781226 53.984895 
M 335.33341 53.984895 
L 335.33341 52.275332 
M 333.885595 52.275332 
L 336.781226 52.275332 
" clip-path="url(#p01facc60ec)" style="fill: none; stroke: #424242; stroke-width: 0.5; stroke-linecap: square"/>
   </g>
   <g id="line2d_47">
    <path d="M 353.1898 52.521874 
L 356.085431 52.521874 
M 354.637616 52.521874 
L 354.637616 50.01739 
M 353.1898 50.01739 
L 356.085431 50.01739 
" clip-path="url(#p01facc60ec)" style="fill: none; stroke: #424242; stroke-width: 0.5; stroke-linecap: square"/>
   </g>
   <g id="line2d_48">
    <path d="M 372.494006 48.599345 
L 375.389637 48.599345 
M 373.941822 48.599345 
L 373.941822 45.898758 
M 372.494006 45.898758 
L 375.389637 45.898758 
" clip-path="url(#p01facc60ec)" style="fill: none; stroke: #424242; stroke-width: 0.5; stroke-linecap: square"/>
   </g>
   <g id="line2d_49">
    <path d="M 391.798212 56.821995 
L 394.693843 56.821995 
M 393.246027 56.821995 
L 393.246027 54.670599 
M 391.798212 54.670599 
L 394.693843 54.670599 
" clip-path="url(#p01facc60ec)" style="fill: none; stroke: #424242; stroke-width: 0.5; stroke-linecap: square"/>
   </g>
   <g id="line2d_50">
    <path d="M 411.102418 49.85147 
L 413.998049 49.85147 
M 412.550233 49.85147 
L 412.550233 47.16489 
M 411.102418 47.16489 
L 413.998049 47.16489 
" clip-path="url(#p01facc60ec)" style="fill: none; stroke: #424242; stroke-width: 0.5; stroke-linecap: square"/>
   </g>
   <g id="line2d_51">
    <path d="M 430.406623 54.005952 
L 433.302254 54.005952 
M 431.854439 54.005952 
L 431.854439 50.481592 
M 430.406623 50.481592 
L 433.302254 50.481592 
" clip-path="url(#p01facc60ec)" style="fill: none; stroke: #424242; stroke-width: 0.5; stroke-linecap: square"/>
   </g>
   <g id="line2d_52">
    <path d="M 449.710829 55.058513 
L 452.60646 55.058513 
M 451.158645 55.058513 
L 451.158645 49.745169 
M 449.710829 49.745169 
L 452.60646 49.745169 
" clip-path="url(#p01facc60ec)" style="fill: none; stroke: #424242; stroke-width: 0.5; stroke-linecap: square"/>
   </g>
   <g id="line2d_53">
    <path d="M 469.015035 50.51597 
L 471.910666 50.51597 
M 470.46285 50.51597 
L 470.46285 47.573392 
M 469.015035 47.573392 
L 471.910666 47.573392 
" clip-path="url(#p01facc60ec)" style="fill: none; stroke: #424242; stroke-width: 0.5; stroke-linecap: square"/>
   </g>
   <g id="line2d_54">
    <path d="M 488.319241 32.071248 
L 491.214871 32.071248 
M 489.767056 32.071248 
L 489.767056 25.079486 
M 488.319241 25.079486 
L 491.214871 25.079486 
" clip-path="url(#p01facc60ec)" style="fill: none; stroke: #424242; stroke-width: 0.5; stroke-linecap: square"/>
   </g>
   <g id="line2d_55">
    <path d="M 52.044191 57.047466 
L 54.939822 57.047466 
M 53.492007 57.047466 
L 53.492007 55.642807 
M 52.044191 55.642807 
L 54.939822 55.642807 
" clip-path="url(#p01facc60ec)" style="fill: none; stroke: #424242; stroke-width: 0.5; stroke-linecap: square"/>
   </g>
   <g id="line2d_56">
    <path d="M 71.348397 55.100712 
L 74.244028 55.100712 
M 72.796212 55.100712 
L 72.796212 53.235428 
M 71.348397 53.235428 
L 74.244028 53.235428 
" clip-path="url(#p01facc60ec)" style="fill: none; stroke: #424242; stroke-width: 0.5; stroke-linecap: square"/>
   </g>
   <g id="line2d_57">
    <path d="M 90.652603 58.954849 
L 93.548233 58.954849 
M 92.100418 58.954849 
L 92.100418 57.698608 
M 90.652603 57.698608 
L 93.548233 57.698608 
" clip-path="url(#p01facc60ec)" style="fill: none; stroke: #424242; stroke-width: 0.5; stroke-linecap: square"/>
   </g>
   <g id="line2d_58">
    <path d="M 109.956808 59.316175 
L 112.852439 59.316175 
M 111.404624 59.316175 
L 111.404624 57.747301 
M 109.956808 57.747301 
L 112.852439 57.747301 
" clip-path="url(#p01facc60ec)" style="fill: none; stroke: #424242; stroke-width: 0.5; stroke-linecap: square"/>
   </g>
   <g id="line2d_59">
    <path d="M 129.261014 59.809198 
L 132.156645 59.809198 
M 130.708829 59.809198 
L 130.708829 58.383729 
M 129.261014 58.383729 
L 132.156645 58.383729 
" clip-path="url(#p01facc60ec)" style="fill: none; stroke: #424242; stroke-width: 0.5; stroke-linecap: square"/>
   </g>
   <g id="line2d_60">
    <path d="M 148.56522 58.835389 
L 151.460851 58.835389 
M 150.013035 58.835389 
L 150.013035 57.161637 
M 148.56522 57.161637 
L 151.460851 57.161637 
" clip-path="url(#p01facc60ec)" style="fill: none; stroke: #424242; stroke-width: 0.5; stroke-linecap: square"/>
   </g>
   <g id="line2d_61">
    <path d="M 167.869425 59.691838 
L 170.765056 59.691838 
M 169.317241 59.691838 
L 169.317241 58.105349 
M 167.869425 58.105349 
L 170.765056 58.105349 
" clip-path="url(#p01facc60ec)" style="fill: none; stroke: #424242; stroke-width: 0.5; stroke-linecap: square"/>
   </g>
   <g id="line2d_62">
    <path d="M 187.173631 56.816794 
L 190.069262 56.816794 
M 188.621447 56.816794 
L 188.621447 55.295689 
M 187.173631 55.295689 
L 190.069262 55.295689 
" clip-path="url(#p01facc60ec)" style="fill: none; stroke: #424242; stroke-width: 0.5; stroke-linecap: square"/>
   </g>
   <g id="line2d_63">
    <path d="M 206.477837 51.818733 
L 209.373468 51.818733 
M 207.925652 51.818733 
L 207.925652 49.761302 
M 206.477837 49.761302 
L 209.373468 49.761302 
" clip-path="url(#p01facc60ec)" style="fill: none; stroke: #424242; stroke-width: 0.5; stroke-linecap: square"/>
   </g>
   <g id="line2d_64">
    <path d="M 225.782043 58.552423 
L 228.677674 58.552423 
M 227.229858 58.552423 
L 227.229858 56.996119 
M 225.782043 56.996119 
L 228.677674 56.996119 
" clip-path="url(#p01facc60ec)" style="fill: none; stroke: #424242; stroke-width: 0.5; stroke-linecap: square"/>
   </g>
   <g id="line2d_65">
    <path d="M 245.086248 58.759866 
L 247.981879 58.759866 
M 246.534064 58.759866 
L 246.534064 57.297343 
M 245.086248 57.297343 
L 247.981879 57.297343 
" clip-path="url(#p01facc60ec)" style="fill: none; stroke: #424242; stroke-width: 0.5; stroke-linecap: square"/>
   </g>
   <g id="line2d_66">
    <path d="M 264.390454 58.467219 
L 267.286085 58.467219 
M 265.83827 58.467219 
L 265.83827 56.857697 
M 264.390454 56.857697 
L 267.286085 56.857697 
" clip-path="url(#p01facc60ec)" style="fill: none; stroke: #424242; stroke-width: 0.5; stroke-linecap: square"/>
   </g>
   <g id="line2d_67">
    <path d="M 283.69466 55.816848 
L 286.590291 55.816848 
M 285.142475 55.816848 
L 285.142475 53.89086 
M 283.69466 53.89086 
L 286.590291 53.89086 
" clip-path="url(#p01facc60ec)" style="fill: none; stroke: #424242; stroke-width: 0.5; stroke-linecap: square"/>
   </g>
   <g id="line2d_68">
    <path d="M 302.998866 58.077459 
L 305.894496 58.077459 
M 304.446681 58.077459 
L 304.446681 56.203148 
M 302.998866 56.203148 
L 305.894496 56.203148 
" clip-path="url(#p01facc60ec)" style="fill: none; stroke: #424242; stroke-width: 0.5; stroke-linecap: square"/>
   </g>
   <g id="line2d_69">
    <path d="M 322.303071 56.995756 
L 325.198702 56.995756 
M 323.750887 56.995756 
L 323.750887 55.337338 
M 322.303071 55.337338 
L 325.198702 55.337338 
" clip-path="url(#p01facc60ec)" style="fill: none; stroke: #424242; stroke-width: 0.5; stroke-linecap: square"/>
   </g>
   <g id="line2d_70">
    <path d="M 341.607277 57.109962 
L 344.502908 57.109962 
M 343.055092 57.109962 
L 343.055092 55.260324 
M 341.607277 55.260324 
L 344.502908 55.260324 
" clip-path="url(#p01facc60ec)" style="fill: none; stroke: #424242; stroke-width: 0.5; stroke-linecap: square"/>
   </g>
   <g id="line2d_71">
    <path d="M 360.911483 54.679443 
L 363.807114 54.679443 
M 362.359298 54.679443 
L 362.359298 52.770392 
M 360.911483 52.770392 
L 363.807114 52.770392 
" clip-path="url(#p01facc60ec)" style="fill: none; stroke: #424242; stroke-width: 0.5; stroke-linecap: square"/>
   </g>
   <g id="line2d_72">
    <path d="M 380.215688 50.879468 
L 383.111319 50.879468 
M 381.663504 50.879468 
L 381.663504 48.628775 
M 380.215688 48.628775 
L 383.111319 48.628775 
" clip-path="url(#p01facc60ec)" style="fill: none; stroke: #424242; stroke-width: 0.5; stroke-linecap: square"/>
   </g>
   <g id="line2d_73">
    <path d="M 399.519894 59.591127 
L 402.415525 59.591127 
M 400.96771 59.591127 
L 400.96771 57.613196 
M 399.519894 57.613196 
L 402.415525 57.613196 
" clip-path="url(#p01facc60ec)" style="fill: none; stroke: #424242; stroke-width: 0.5; stroke-linecap: square"/>
   </g>
   <g id="line2d_74">
    <path d="M 418.8241 51.788493 
L 421.719731 51.788493 
M 420.271915 51.788493 
L 420.271915 49.846152 
M 418.8241 49.846152 
L 421.719731 49.846152 
" clip-path="url(#p01facc60ec)" style="fill: none; stroke: #424242; stroke-width: 0.5; stroke-linecap: square"/>
   </g>
   <g id="line2d_75">
    <path d="M 438.128306 55.124402 
L 441.023937 55.124402 
M 439.576121 55.124402 
L 439.576121 52.981117 
M 438.128306 52.981117 
L 441.023937 52.981117 
" clip-path="url(#p01facc60ec)" style="fill: none; stroke: #424242; stroke-width: 0.5; stroke-linecap: square"/>
   </g>
   <g id="line2d_76">
    <path d="M 457.432511 57.935073 
L 460.328142 57.935073 
M 458.880327 57.935073 
L 458.880327 55.631599 
M 457.432511 55.631599 
L 460.328142 55.631599 
" clip-path="url(#p01facc60ec)" style="fill: none; stroke: #424242; stroke-width: 0.5; stroke-linecap: square"/>
   </g>
   <g id="line2d_77">
    <path d="M 476.736717 52.595776 
L 479.632348 52.595776 
M 478.184533 52.595776 
L 478.184533 50.448697 
M 476.736717 50.448697 
L 479.632348 50.448697 
" clip-path="url(#p01facc60ec)" style="fill: none; stroke: #424242; stroke-width: 0.5; stroke-linecap: square"/>
   </g>
   <g id="line2d_78">
    <path d="M 496.040923 53.649842 
L 498.936554 53.649842 
M 497.488738 53.649842 
L 497.488738 51.476517 
M 496.040923 51.476517 
L 498.936554 51.476517 
" clip-path="url(#p01facc60ec)" style="fill: none; stroke: #424242; stroke-width: 0.5; stroke-linecap: square"/>
   </g>
   <g id="patch_53">
    <path d="M 39.979062 73.1995 
L 39.979062 6.48 
" style="fill: none; stroke: #000000; stroke-width: 0.75; stroke-linejoin: miter; stroke-linecap: square"/>
   </g>
   <g id="patch_54">
    <path d="M 503.28 73.1995 
L 503.28 6.48 
" style="fill: none; stroke: #000000; stroke-width: 0.75; stroke-linejoin: miter; stroke-linecap: square"/>
   </g>
   <g id="patch_55">
    <path d="M 39.979062 73.1995 
L 503.28 73.1995 
" style="fill: none; stroke: #000000; stroke-width: 0.75; stroke-linejoin: miter; stroke-linecap: square"/>
   </g>
   <g id="patch_56">
    <path d="M 39.979062 6.48 
L 503.28 6.48 
" style="fill: none; stroke: #000000; stroke-width: 0.75; stroke-linejoin: miter; stroke-linecap: square"/>
   </g>
   <g id="legend_1">
    <g id="patch_57">
     <path d="M 44.179063 28.254375 
L 95.05625 28.254375 
Q 96.25625 28.254375 96.25625 27.054375 
L 96.25625 10.68 
Q 96.25625 9.48 95.05625 9.48 
L 44.179063 9.48 
Q 42.979062 9.48 42.979062 10.68 
L 42.979062 27.054375 
Q 42.979062 28.254375 44.179063 28.254375 
z
" style="fill: #ffffff; opacity: 0.8; stroke: #ffffff; stroke-linejoin: miter"/>
    </g>
    <g id="patch_58">
     <path d="M 45.379062 16.174688 
L 57.379062 16.174688 
L 57.379062 11.974688 
L 45.379062 11.974688 
z
" style="fill: #666666"/>
    </g>
    <g id="text_30">
     <!-- GRCh38 -->
     <g transform="translate(62.179063 16.174688) scale(0.06 -0.06)">
      <use xlink:href="#ArialMT-47"/>
      <use xlink:href="#ArialMT-52" x="77.783203"/>
      <use xlink:href="#ArialMT-43" x="150"/>
      <use xlink:href="#ArialMT-68" x="222.216797"/>
      <use xlink:href="#ArialMT-33" x="277.832031"/>
      <use xlink:href="#ArialMT-38" x="333.447266"/>
     </g>
    </g>
    <g id="patch_59">
     <path d="M 45.379062 24.661875 
L 57.379062 24.661875 
L 57.379062 20.461875 
L 45.379062 20.461875 
z
" style="fill: #9372b2"/>
    </g>
    <g id="text_31">
     <!-- CHM13v2.0 -->
     <g transform="translate(62.179063 24.661875) scale(0.06 -0.06)">
      <defs>
       <path id="ArialMT-48" d="M 513 0 
L 513 4581 
L 1119 4581 
L 1119 2700 
L 3500 2700 
L 3500 4581 
L 4106 4581 
L 4106 0 
L 3500 0 
L 3500 2159 
L 1119 2159 
L 1119 0 
L 513 0 
z
" transform="scale(0.015625)"/>
       <path id="ArialMT-4d" d="M 475 0 
L 475 4581 
L 1388 4581 
L 2472 1338 
Q 2622 884 2691 659 
Q 2769 909 2934 1394 
L 4031 4581 
L 4847 4581 
L 4847 0 
L 4263 0 
L 4263 3834 
L 2931 0 
L 2384 0 
L 1059 3900 
L 1059 0 
L 475 0 
z
" transform="scale(0.015625)"/>
       <path id="ArialMT-76" d="M 1344 0 
L 81 3319 
L 675 3319 
L 1388 1331 
Q 1503 1009 1600 663 
Q 1675 925 1809 1294 
L 2547 3319 
L 3125 3319 
L 1869 0 
L 1344 0 
z
" transform="scale(0.015625)"/>
      </defs>
      <use xlink:href="#ArialMT-43"/>
      <use xlink:href="#ArialMT-48" x="72.216797"/>
      <use xlink:href="#ArialMT-4d" x="144.433594"/>
      <use xlink:href="#ArialMT-31" x="227.734375"/>
      <use xlink:href="#ArialMT-33" x="283.349609"/>
      <use xlink:href="#ArialMT-76" x="338.964844"/>
      <use xlink:href="#ArialMT-32" x="388.964844"/>
      <use xlink:href="#ArialMT-2e" x="444.580078"/>
      <use xlink:href="#ArialMT-30" x="472.363281"/>
     </g>
    </g>
   </g>
  </g>
 </g>
 <defs>
  <clipPath id="p01facc60ec">
   <rect x="39.979062" y="6.48" width="463.300937" height="66.7195"/>
  </clipPath>
 </defs>
</svg>
